<svg width="42" height="20" viewBox="0 0 42 20" fill="none" xmlns="http://www.w3.org/2000/svg">
<path d="M18.6089 15.8165C20.8467 15.8165 22.4272 14.2804 22.4272 12.1526C22.4272 9.89729 21.0343 8.23354 18.9215 8.23354C18.7412 8.23354 17.5176 8.23783 17.5176 8.23783L17.971 6.01009H20.8073C21.2698 6.01009 21.6443 5.62713 21.6443 5.15397C21.6443 4.6808 21.2692 4.29785 20.8073 4.29785H16.5088C16.5088 4.31626 15.3089 9.78559 15.3089 9.78559C15.2276 10.2133 15.4734 10.6356 15.8806 10.7663L16.0293 10.8246C16.4293 10.9062 16.7917 10.8455 17.0108 10.5902C17.3956 10.1415 17.9558 9.86599 18.6556 9.86599C19.8447 9.86599 20.6901 10.7939 20.6901 11.9777C20.6901 13.1616 19.8604 14.0895 18.6089 14.0895C17.7646 14.0895 17.0496 13.6157 16.7055 12.9241C16.5659 12.6436 16.2764 12.4736 15.9686 12.4736H15.8266C15.2057 12.4736 14.8051 13.1376 15.0752 13.709C15.6676 14.9603 17.0599 15.8165 18.6089 15.8165Z" fill="white"/>
<path d="M4.32353 5.26492C4.32353 5.83505 4.77571 6.29717 5.3335 6.29717H6.84846V14.8148C6.84846 15.3849 7.30064 15.847 7.85843 15.847C8.41622 15.847 8.8684 15.3849 8.8684 14.8148V4.23267H5.3335C4.77571 4.23267 4.32353 4.69478 4.32353 5.26492Z" fill="white"/>
<path d="M37.9152 0H4.0848C1.83239 0 0 1.85277 0 4.13023V15.8698C0 18.1472 1.83239 20 4.0848 20H37.9152C40.1676 20 42 18.1472 42 15.8698V4.13023C42 1.85277 40.1676 0 37.9152 0ZM12.3916 13.5751C11.8951 13.5751 11.4927 13.982 11.4927 14.484V18.181H4.08541C2.82476 18.181 1.79901 17.1438 1.79901 15.8692V4.13023C1.79901 2.85556 2.82476 1.8184 4.08541 1.8184H24.6156V18.1816H13.2911V14.4846C13.2911 13.9826 12.8881 13.5751 12.3916 13.5751ZM40.2022 15.8692C40.2022 17.1438 39.1765 18.181 37.9158 18.181H26.2969V1.8184H37.9158C39.1765 1.8184 40.2022 2.85556 40.2022 4.13023V15.8692Z" fill="white"/>
<path d="M35.417 12.8503C35.0577 12.8503 34.7645 13.1517 34.7645 13.5217C34.7645 13.8918 35.0571 14.1931 35.417 14.1931C35.7769 14.1931 36.0688 13.8918 36.0688 13.5217C36.0688 13.1517 35.7763 12.8503 35.417 12.8503ZM35.417 15.8158C34.1873 15.8158 33.187 14.7866 33.187 13.5211C33.187 12.2557 34.1873 11.2265 35.417 11.2265C36.6467 11.2265 37.6469 12.2563 37.6469 13.5211C37.6469 14.786 36.6467 15.8158 35.417 15.8158Z" fill="white"/>
<path d="M30.7962 5.83878C30.4369 5.83878 30.1438 6.14011 30.1438 6.51017C30.1438 6.88024 30.4363 7.18095 30.7962 7.18095C31.1562 7.18095 31.4481 6.88024 31.4481 6.51017C31.4481 6.14011 31.1556 5.83878 30.7962 5.83878ZM30.7962 8.8042C29.5665 8.8042 28.5663 7.77502 28.5663 6.50956C28.5663 5.2441 29.5665 4.21492 30.7962 4.21492C32.0259 4.21492 33.0262 5.2441 33.0262 6.50956C33.0262 7.77502 32.0259 8.8042 30.7962 8.8042Z" fill="white"/>
<path d="M29.6075 15.5567C29.4351 15.5567 29.2712 15.5002 29.1334 15.3934C28.7857 15.124 28.7159 14.614 28.9775 14.2563L35.8973 4.79846C36.1589 4.44067 36.6548 4.36887 37.002 4.63829C37.1701 4.76839 37.2794 4.95864 37.3085 5.17344C37.3376 5.38823 37.2842 5.6018 37.1574 5.77487L30.2375 15.2327C30.087 15.4383 29.8575 15.5567 29.6075 15.5567Z" fill="white"/>
</svg>
