<svg width="1283" height="734" viewBox="0 0 1283 734" fill="none" xmlns="http://www.w3.org/2000/svg">
<g opacity="0.1" clip-path="url(#clip0_990_2108)">
<path d="M1283 0.00627489V19.54L1282.95 0.0142928H885.054C880.792 2.16769 874.491 5.3465 871.16 7.03241C811.417 37.2742 764.628 60.662 712.07 86.559C622.915 130.486 501.281 191.334 501.25 192.007C501.25 192.378 502.981 193.724 505.117 194.999C507.252 196.275 516.732 202.419 526.183 208.652C535.636 214.885 543.46 219.984 543.57 219.984C543.68 219.984 548.316 222.994 553.874 226.673C565.079 234.091 564.954 234.072 572.495 229.606C574.282 228.547 576.108 227.681 576.552 227.681C576.995 227.681 577.356 227.334 577.356 226.91C577.356 226.213 581.804 224.261 583.39 224.261C583.746 224.261 585.54 225.512 587.374 227.04C590.585 229.714 594.938 232.195 598.113 233.164C599.419 233.562 599.256 233.977 596.917 236.213C595.428 237.636 593.688 238.8 593.051 238.8C591.454 238.8 581.582 244.212 581.847 244.94C582.086 245.593 610.518 264.458 611.264 264.458C611.523 264.458 614.521 266.479 617.93 268.948C621.341 271.418 630.387 277.479 638.032 282.419C655.209 293.516 662.597 298.406 673.656 306C678.403 309.259 682.866 312.31 683.575 312.78C684.284 313.251 688.1 315.783 692.053 318.408C696.007 321.034 704.245 326.489 710.361 330.532C716.476 334.576 722.827 338.832 724.474 339.991C726.119 341.149 731.7 344.83 736.874 348.169C742.049 351.509 746.86 354.632 747.566 355.108C748.271 355.585 750.744 357.225 753.06 358.753C761.265 364.167 768.806 369.277 774.189 373.07C779.865 377.07 783.235 379.064 784.322 379.064C784.674 379.064 786.379 378.102 788.112 376.926C789.845 375.75 793.733 372.96 796.753 370.725C799.773 368.49 805.78 364.161 810.106 361.103C814.431 358.046 820.314 353.801 823.181 351.67C826.047 349.54 832.434 344.949 837.374 341.469C848.566 333.584 851.77 331.298 858.757 326.211C866.559 320.531 878.207 312.174 882.389 309.256C887.72 305.538 899.904 296.81 902.806 294.633C904.218 293.574 907.49 291.29 910.077 289.556C912.664 287.823 917.668 284.229 921.195 281.57C924.724 278.911 929.92 275.143 932.742 273.197C935.565 271.252 941.338 267.165 945.572 264.112C949.807 261.059 955.343 257.098 957.874 255.309C962.549 252.006 976.598 241.925 995.181 228.542C1000.83 224.476 1011.92 216.558 1019.83 210.946C1042.15 195.106 1044.13 193.685 1054.79 185.852C1060.28 181.81 1067.31 176.772 1070.4 174.655C1084.06 165.294 1100.64 153.076 1103.44 150.305C1105.12 148.645 1107.1 147.286 1107.83 147.286C1108.57 147.286 1109.77 146.372 1110.5 145.254C1111.24 144.135 1112.86 142.961 1114.12 142.644C1115.38 142.328 1117.81 140.988 1119.52 139.666C1124.12 136.107 1150.12 117.416 1155.55 113.762C1158.14 112.023 1161.8 109.449 1163.68 108.043C1165.56 106.636 1169.6 103.749 1172.66 101.626C1175.72 99.5039 1182.45 94.6431 1187.63 90.8238C1197.77 83.3392 1197.55 83.4954 1206.45 77.2793C1209.74 74.9778 1213.3 72.2898 1214.36 71.3061C1215.42 70.3224 1216.28 69.7296 1216.28 69.9882C1216.28 70.3673 1221.71 66.3931 1226.14 62.7667C1226.62 62.3719 1228.16 61.3207 1229.56 60.4298C1230.96 59.5388 1234.46 57.0682 1237.33 54.9393C1240.2 52.8103 1243.64 50.2989 1244.97 49.3579C1246.3 48.4172 1248.54 46.685 1249.94 45.509C1251.34 44.333 1253.71 42.6011 1255.21 41.6604C1262.71 36.9365 1264.18 35.8706 1264.18 35.161C1264.18 34.7371 1264.66 34.3773 1265.25 34.3773C1265.84 34.3773 1267.62 33.2154 1269.21 31.8118C1270.81 30.4079 1272.64 29.2595 1273.28 29.2595C1273.92 29.2595 1274.44 28.6594 1274.44 27.926C1274.44 27.1945 1274.81 26.8159 1275.25 27.0873C1275.69 27.3589 1276.36 27.0257 1276.74 26.3441C1277.13 25.6617 1277.63 25.1492 1277.86 25.2034C1278.1 25.2591 1279.35 24.6078 1280.65 23.7585L1283 22.2201V388.899C1283 199.099 1282.87 43.8074 1282.7 43.7994C1282.42 43.8137 1270.24 52.7258 1258.19 61.7409C1250.45 67.5365 1238.7 76.2306 1226.95 84.8515C1220.86 89.3201 1212.75 95.2859 1208.93 98.1082C1205.11 100.931 1199.01 105.357 1195.39 107.944C1191.76 110.531 1185.79 114.957 1182.11 117.779C1178.44 120.602 1171.25 125.971 1166.14 129.712C1161.02 133.452 1149.33 142.082 1140.16 148.891C1125.21 159.991 1117.59 165.61 1103.81 175.718C1094.37 182.642 1086.51 188.502 1082.85 191.334C1080.74 192.975 1078.18 194.681 1077.16 195.125C1076.15 195.568 1075.07 196.342 1074.76 196.843C1074.45 197.345 1071.81 199.37 1068.9 201.344C1065.99 203.317 1061.63 206.49 1059.21 208.395C1056.79 210.3 1048.9 216.18 1041.68 221.463C1034.45 226.745 1022.77 235.289 1015.71 240.449C1008.65 245.609 1000.76 251.417 998.177 253.356C975.207 270.57 952.727 287.084 947.713 290.429C945.596 291.841 942.668 293.984 941.207 295.191C939.746 296.398 937.63 298.026 936.503 298.809C933.243 301.076 914.889 314.718 913.751 315.719C913.182 316.22 912.5 316.629 912.239 316.629C911.973 316.629 907.034 320.19 901.259 324.541C895.485 328.892 889.046 333.645 886.95 335.104C884.852 336.564 878.113 341.569 871.975 346.225C865.835 350.88 860.206 355.074 859.464 355.544C858.722 356.014 855.085 358.71 851.382 361.535C847.678 364.359 843.684 367.337 842.508 368.153C838.546 370.899 813.897 389.16 809.579 392.546C803.857 397.032 795.204 403.497 789.843 407.288C786.186 409.875 781.24 413.547 778.852 415.449C776.464 417.351 772.21 420.623 769.397 422.72C766.584 424.816 763.695 427.004 762.979 427.582C762.264 428.16 759.127 430.469 756.007 432.713C746.304 439.691 730.049 452.155 729.741 452.852C729.58 453.218 728.041 454.254 726.32 455.153C724.599 456.052 721.458 458.352 719.341 460.261C717.224 462.172 715.266 463.733 714.985 463.734C714.704 463.734 713.358 464.698 711.991 465.875C710.624 467.052 707.389 469.447 704.802 471.199C702.215 472.951 699.327 475.056 698.387 475.878C697.445 476.699 694.894 478.632 692.715 480.175C686.96 484.248 678.44 490.608 674.011 494.136C671.894 495.822 661.116 503.955 650.061 512.209C639.006 520.462 629.832 527.558 629.677 527.976C629.521 528.394 629.033 528.736 628.596 528.736C628.158 528.736 625.978 530.109 623.75 531.788C621.522 533.466 618.061 536.041 616.062 537.511C614.062 538.98 612.428 540.493 612.428 540.873C612.428 541.254 611.984 541.565 611.444 541.565C610.589 541.565 603.77 546.612 599.413 550.47C598.605 551.185 596.431 552.724 594.583 553.891C592.735 555.058 589.162 557.672 586.643 559.702C582.41 563.113 579.137 565.507 575.778 567.651C575.041 568.122 573.985 568.891 573.433 569.361C572.88 569.832 570.765 571.564 568.732 573.21C566.698 574.857 564.095 577.069 562.946 578.128C561.797 579.186 560.338 580.052 559.701 580.052C559.064 580.052 558.542 580.437 558.542 580.908C558.542 581.378 558.06 581.766 557.472 581.766C556.884 581.766 555.173 582.923 553.669 584.331C552.167 585.74 550.589 586.894 550.167 586.894C549.744 586.894 548.701 587.664 547.851 588.604C546.998 589.545 545.785 590.316 545.152 590.316C544.519 590.316 544.001 590.663 544.001 591.088C544.001 591.514 542.27 592.879 540.153 594.119C538.036 595.359 536.303 596.761 536.303 597.235C536.303 598.791 533.96 596.857 523.229 586.446C517.422 580.813 509.327 573.125 505.238 569.361C501.149 565.598 494.789 559.633 491.105 556.105C487.42 552.577 480.048 545.649 474.723 540.71C469.398 535.77 460.89 527.688 455.815 522.749C450.741 517.81 442.476 509.92 437.449 505.216C422.473 491.202 420.063 488.931 408.125 477.588C401.84 471.615 395.266 465.382 393.517 463.735C380.179 451.181 363.297 435.175 360.075 432.03C357.939 429.946 353.322 425.592 349.811 422.353C346.301 419.115 338.795 411.995 333.131 406.531C327.469 401.068 317.67 391.786 311.357 385.906C305.045 380.026 299.026 374.395 297.982 373.393C296.937 372.39 293.072 368.758 289.392 365.323C285.711 361.886 275.195 351.899 266.021 343.128C256.848 334.357 247.033 325.11 244.211 322.578C241.388 320.046 236.962 315.806 234.375 313.156C231.787 310.506 227.553 306.49 224.966 304.231C218.868 298.907 197.504 278.918 174.096 256.634C167.992 250.823 158.37 241.667 152.713 236.287C147.056 230.907 139.348 223.571 135.585 219.982C131.822 216.394 125.47 210.431 121.472 206.731C117.473 203.031 111.315 197.281 107.787 193.951C104.258 190.622 99.4476 186.204 97.0953 184.133C94.743 182.063 89.7394 177.482 85.9758 173.955C75.2803 163.93 68.7724 157.871 57.796 147.713C52.205 142.539 44.7108 135.558 41.1435 132.2C29.7332 121.461 25.5106 117.779 24.5997 117.779C24.1108 117.779 23.4776 117.189 23.1962 116.466C22.9151 115.744 20.7977 113.435 18.4935 111.334C16.1904 109.234 13.1877 106.477 11.8212 105.208C10.4562 103.938 8.58711 102.66 7.67007 102.369C6.75359 102.078 6.00328 101.289 6.00328 100.615C6.00328 99.9413 5.60066 99.3911 5.10801 99.3911C4.61464 99.3911 3.2683 98.372 2.11435 97.1274L0.0159667 94.8643V414.432V734H0.000278541V69.0606L2.64113 71.1701C4.11123 72.3447 5.94168 73.9014 6.71065 74.6286C7.4799 75.356 12.5358 79.7716 17.9458 84.4424C29.1867 94.1479 40.6399 104.295 48.7955 111.772C51.8858 114.605 56.3115 118.604 58.6313 120.658C60.9507 122.711 64.9671 126.371 67.554 128.791C70.1417 131.211 75.1454 135.674 78.6735 138.709C87.4354 146.245 93.2665 151.533 101.339 159.258C105.102 162.86 111.838 169.014 116.307 172.933C120.777 176.852 128.86 184.192 134.269 189.247C139.68 194.3 145.591 199.724 147.408 201.298C152.066 205.335 173.149 224.561 184.195 234.846C189.31 239.608 193.797 243.697 194.169 243.933C195.24 244.617 208.2 256.441 217.605 265.313C222.341 269.782 230.643 277.335 236.052 282.098C241.462 286.861 246.821 291.768 247.962 293.003C250.398 295.64 251.56 295.709 256.153 293.486H256.184C268.976 287.294 294.683 274.991 298.95 273.017C305.936 269.787 320.93 262.669 332.308 257.18C349.628 248.825 367.109 240.511 367.358 240.511C367.494 240.511 374.865 237.004 383.741 232.72C392.617 228.435 404.304 222.794 409.714 220.182C415.125 217.569 425.325 212.684 432.381 209.325C458.111 197.078 466.166 193.073 466.166 192.529C466.166 192.025 447.514 179.415 425.538 165.062C420.835 161.989 405.053 151.614 390.469 142.006C355.855 119.201 352.213 116.883 351.389 117.138C351.008 117.254 350.698 116.997 350.697 116.562C350.697 115.73 333.2 103.668 331.992 103.668C331.607 103.668 330.593 102.898 329.742 101.958C328.891 101.017 327.853 100.246 327.435 100.246C327.017 100.246 325.636 99.2847 324.368 98.1089C323.1 96.9328 321.76 95.9706 321.391 95.9706C321.023 95.9706 316.036 92.6857 310.311 88.6722C304.584 84.6587 299.378 81.5758 298.74 81.8216C298.106 82.0672 297.803 81.9058 298.075 81.4644C298.347 81.0228 297.695 80.1996 296.623 79.6353C295.552 79.0709 294.414 78.2102 294.098 77.7227C293.719 77.1405 292.986 77.2582 291.96 78.0652C290.548 79.1744 290.504 79.1557 291.506 77.874C292.479 76.6287 291.984 76.0544 287.447 73.1701C281.984 69.6963 266.31 58.9597 264.561 57.493C263.993 57.0165 263.159 56.626 262.708 56.626C262.257 56.626 261.76 56.2968 261.601 55.8927C261.447 55.4886 257.16 52.3133 252.08 48.8369C231.694 34.8855 222.459 28.6555 216.793 25.0344C213.526 22.9464 210.66 20.9887 210.424 20.6817C210.044 20.1858 205.544 17.2452 178.81 0.0142928L-7.00862e-05 0L1283 0.00627489ZM860.581 0.0205677C860.566 0.0205677 860.561 0.0348605 860.551 0.0348605C642.549 0.0348605 424.728 0.203065 207.028 0.0348605C207.264 0.191642 207.459 0.330597 207.702 0.489093C212.762 3.77937 219.699 8.32975 223.119 10.6035C226.538 12.8773 229.51 14.7376 229.721 14.7376C230.262 14.7376 242.469 22.6169 242.989 23.3021C243.225 23.6124 247.65 26.7158 252.825 30.1977C262.896 36.9753 263.182 37.1644 268.2 40.3495C270.013 41.5003 276.149 45.564 281.834 49.3797C287.519 53.1952 294.672 57.9912 297.729 60.0369C300.787 62.0835 304.417 64.5308 305.798 65.4757C307.18 66.4208 308.816 67.1936 309.435 67.1936C310.054 67.1936 310.559 67.4621 310.559 67.7927C310.559 68.1225 312.101 69.412 313.985 70.6594C316.475 72.3076 318.052 72.7857 319.759 72.4134C321.576 72.0172 321.816 72.1099 320.823 72.8206C319.743 73.5944 320.007 74.1124 322.495 76.097C327.817 80.3412 335.77 85.7152 336.755 85.7152C337.285 85.7152 338.212 86.3192 338.816 87.0463C339.419 87.7732 340.425 88.1709 341.049 87.9316C341.675 87.6924 342.096 87.8774 341.982 88.3428C341.869 88.8083 342.893 89.8528 344.257 90.6641C345.621 91.4756 347.62 92.9321 348.7 93.902C349.779 94.8721 352.127 96.4111 353.918 97.3233C355.709 98.2348 357.366 99.2034 357.602 99.4781C358.934 101.027 373.187 109.655 373.793 109.28C374.193 109.035 375.15 109.791 375.918 110.963C376.686 112.135 377.702 113.093 378.178 113.093C378.653 113.093 381.909 115.046 385.41 117.432C388.912 119.819 392.179 121.521 392.671 121.218C393.163 120.914 393.461 121.039 393.331 121.502C393.115 122.268 399.698 127.633 400.853 127.633C401.128 127.633 406.81 131.23 413.477 135.625C420.144 140.021 426.016 143.853 426.527 144.141C427.409 144.64 429.281 143.892 439.419 138.98C442.013 137.723 444.302 137.116 444.978 137.506C450.161 140.5 456.661 145.159 456.351 145.66C456.141 145.998 452.505 147.741 448.269 149.535C444.033 151.328 440.577 153.003 440.608 153.258C440.64 153.514 444.383 156.065 448.948 158.93C475.946 175.877 481.422 179.339 483.513 180.778C486.611 182.91 488.053 182.773 493.598 179.826L493.537 179.795C497.936 177.459 520.3 166.564 541.862 156.254C547.038 153.779 564.358 145.314 580.352 137.444C615.909 119.948 656.401 100.174 688.977 84.3976C696.975 80.5247 710.365 74.0367 718.734 69.9795C727.102 65.9224 734.165 62.6035 734.43 62.6035C734.782 62.6035 794.561 32.9108 860.551 0.0348605C860.565 0.0348605 860.57 0.0341633 860.58 0.0341633L860.581 0.0205677ZM300.265 60.0359C300.37 60.063 300.71 60.3182 301.304 60.7835C302.127 61.4291 302.8 62.1021 302.8 62.2798C302.8 62.9836 302.098 62.5324 300.982 61.1075C300.451 60.4299 300.193 60.0824 300.235 60.0381C300.235 60.0381 300.25 60.0381 300.265 60.0381V60.0359ZM480.807 202.657C478.89 202.699 475.37 204.302 464.44 209.57C439.348 221.664 386.91 247.382 322.472 279.196C302.951 288.835 283.512 298.371 279.279 300.39C275.044 302.409 271.39 304.313 271.153 304.624C270.918 304.934 269.482 305.69 267.96 306.306C266.23 307.005 265.429 307.791 265.821 308.402C266.602 309.616 279.445 321.752 289.017 330.32C292.959 333.848 296.613 337.145 297.139 337.648C297.665 338.151 301.754 341.769 306.222 345.688C314.525 352.968 316.2 354.479 325.894 363.443C331.893 368.99 338.474 374.952 342.573 378.554C348.028 383.346 350.732 385.82 361.44 395.826C372.634 406.284 380.447 413.363 385.819 417.908C388.865 420.486 393.016 424.276 407.577 437.775C412.281 442.136 417.863 447.296 419.979 449.244C430.98 459.362 441.903 469.496 443.458 471.024C444.422 471.973 449.027 476.207 453.689 480.433C458.349 484.659 463.58 489.464 465.313 491.11C468.927 494.543 479.605 504.184 487.122 510.803C489.945 513.288 495.938 518.823 500.439 523.101C504.94 527.379 511.635 533.574 515.318 536.867C522.82 543.573 525.891 546.362 530.455 550.622C532.177 552.229 533.865 553.545 534.205 553.545C534.546 553.545 535.717 554.507 536.806 555.683C539.159 558.22 538.783 558.186 541.435 556.111C542.612 555.191 543.969 554.418 544.449 554.418C544.93 554.418 546.662 553.315 548.298 551.987C549.934 550.661 553.485 548.122 556.189 546.345C558.895 544.568 561.108 542.828 561.108 542.478C561.108 542.127 562.455 541.114 564.101 540.228C565.748 539.341 567.094 538.318 567.094 537.954C567.094 537.592 567.631 537.295 568.286 537.295C568.941 537.295 569.699 536.717 569.97 536.012C570.241 535.306 571.006 534.729 571.669 534.729C572.332 534.729 573.346 534.16 573.924 533.464C574.501 532.769 577.531 530.453 580.657 528.319C583.783 526.185 588.842 522.526 591.9 520.186C594.958 517.847 598.998 514.911 600.88 513.661C602.762 512.411 604.61 510.865 604.986 510.229C605.363 509.591 606.052 509.071 606.52 509.071C606.989 509.071 609.824 507.242 612.821 505.008C615.819 502.774 620.475 499.407 623.164 497.525C625.854 495.644 628.675 493.498 629.434 492.758C630.195 492.019 634.031 489.133 637.958 486.345C641.886 483.556 646.967 479.928 649.248 478.281C651.53 476.635 655.244 473.966 657.502 472.351C659.761 470.735 661.844 469.064 662.134 468.638C662.425 468.211 663.451 467.416 664.419 466.87C665.96 466 680.97 455.239 689.061 449.202C696.505 443.647 722.058 425.087 725.33 422.858C730.187 419.548 739.506 412.667 742.708 410.025C744.594 408.47 748.672 405.481 751.77 403.385C760.88 397.223 764.687 394.391 764.656 393.767C764.656 393.444 762.818 392.008 760.594 390.574C758.37 389.14 750.391 383.726 742.864 378.542C730.998 370.369 719.719 362.691 687.141 340.605C677.561 334.109 659.916 322.14 649.633 315.16C644.929 311.967 634.345 304.761 626.112 299.146C605.173 284.864 585.643 271.797 584.629 271.392C584.159 271.204 583.582 270.791 583.346 270.474C583.111 270.158 576.376 265.543 568.378 260.219C560.382 254.895 552.106 249.343 549.989 247.88C547.872 246.418 545.517 244.836 544.753 244.365C543.99 243.895 541.095 241.971 538.318 240.089C535.542 238.207 532.641 236.283 531.871 235.812C531.1 235.342 520.139 228.029 507.513 219.561C494.888 211.094 483.587 203.668 482.401 203.059C481.904 202.803 481.445 202.657 480.807 202.657Z" fill="url(#paint0_linear_990_2108)"/>
</g>
<defs>
<linearGradient id="paint0_linear_990_2108" x1="641.5" y1="0" x2="641.5" y2="734" gradientUnits="userSpaceOnUse">
<stop stop-color="#00A85C" stop-opacity="0.05"/>
<stop offset="1" stop-color="#00A85C"/>
</linearGradient>
<clipPath id="clip0_990_2108">
<rect width="1283" height="734" fill="white" transform="matrix(-1 0 0 1 1283 0)"/>
</clipPath>
</defs>
</svg>
