<svg width="66" height="80" viewBox="0 0 66 80" fill="none" xmlns="http://www.w3.org/2000/svg">
<path d="M12.3324 35.222C-7.35431 5.14544 17.7858 -12.3264 23.0169 34.4863C17.4102 11.737 4.47387 6.32927 12.3324 35.222Z" fill="#FFBA00"/>
<path d="M56.961 5.45022C51.8249 5.33785 43.2858 14.7822 39.6542 34.8766C48.948 17.7754 56.0582 10.9412 55.8468 20.0188C57.683 18.4266 59.3528 16.8894 60.7981 15.3602C61.8282 8.89429 59.9843 5.51636 56.961 5.45022ZM58.8212 22.6445C57.745 23.339 56.5807 24.0164 55.3343 24.6624C54.8605 27.4339 54.0527 30.8999 52.8628 35.1173C55.5634 30.4199 57.5047 26.2572 58.8212 22.6445Z" fill="#FF2C00"/>
<path d="M36.9564 35.0454C44.4583 -14.7873 21.2419 -8.3311 25.9182 34.6014C28.6283 10.6823 34.7815 6.68978 36.9564 35.0454Z" fill="#00BEFF"/>
<path d="M4.68313 37.5609C5.53664 37.5609 6.14313 37.7467 6.5025 38.1183C6.77202 38.4007 6.90665 38.7574 6.90665 39.1884C6.90665 39.3371 6.89185 39.4932 6.86189 39.6567L6.76052 40.1918C6.67817 40.6154 6.51739 40.9461 6.27782 41.1839C6.04571 41.4218 5.83964 41.5407 5.65995 41.5407L5.64898 41.6299C5.85862 41.6299 6.0721 41.745 6.28923 41.9754C6.50633 42.2058 6.61484 42.4771 6.61484 42.7892C6.61484 42.9155 6.59959 43.0493 6.56964 43.1905L6.5025 43.536C6.3827 44.1752 6.09427 44.6769 5.63757 45.041C5.18837 45.4052 4.55964 45.5873 3.75107 45.5873H0L1.42618 37.5609H4.68313ZM3.67252 42.3098H2.6053L2.33586 43.8483H3.40264C3.41762 43.8483 3.43286 43.8483 3.44784 43.8483C3.79223 43.8483 4.06541 43.7702 4.26756 43.6141C4.46972 43.4506 4.57079 43.2537 4.57079 43.0233C4.57079 42.5477 4.27145 42.3098 3.67252 42.3098ZM3.97575 39.3H3.1332L2.84139 40.961H3.67252C4.39125 40.961 4.75071 40.6488 4.75071 40.0246C4.75071 39.809 4.68319 39.6344 4.54841 39.5007C4.42115 39.3669 4.23032 39.3 3.97575 39.3Z" fill="white"/>
<path d="M11.2977 45.5873L11.3653 43.837H9.48976L8.93947 45.5873H6.7945L9.68064 37.5609H13.387L13.4317 45.5873H11.2977ZM10.8374 39.5118L9.95008 42.3433H11.4215L11.5448 39.5118H10.8374Z" fill="white"/>
<path d="M19.0691 37.5609C20.0499 37.5609 20.7497 37.8062 21.1689 38.2967C21.4759 38.6683 21.6297 39.1328 21.6297 39.6902C21.6297 39.8908 21.6109 40.1026 21.5735 40.3256L21.1356 42.8115C20.9858 43.6513 20.6189 44.3238 20.035 44.8292C19.451 45.3346 18.6946 45.5873 17.7663 45.5873H14.4983L15.9245 37.5609H19.0691ZM18.3617 39.3H17.6315L16.8342 43.8483H17.901C18.2529 43.8483 18.5265 43.7554 18.7211 43.5696C18.9233 43.3764 19.0614 43.0642 19.1363 42.6332L19.4623 40.805C19.4923 40.6415 19.5071 40.4928 19.5071 40.359C19.5071 39.653 19.1254 39.3 18.3617 39.3Z" fill="white"/>
<path d="M25.5491 37.5609L26.7511 41.4069L29.334 37.5609H31.4561L30.03 45.5873H27.9973L28.8061 41.0613L27.0767 43.7591H25.6053L24.8417 41.0613L24.033 45.5873H22.0118L23.4379 37.5609H25.5491Z" fill="white"/>
<path d="M35.0722 37.5609L33.657 45.5873H31.6244L33.0506 37.5609H35.0722Z" fill="white"/>
<path d="M42.8996 37.5609L41.4849 45.5873H39.4522L38.037 41.195L37.2735 45.5873H35.2408L36.667 37.5609H38.7558L40.1482 41.6633L40.8784 37.5609H42.8996Z" fill="white"/>
<path d="M51.0754 39.3H48.313L47.2011 45.5873H45.1684L46.28 39.3H43.5062L43.8208 37.5609H51.3901L51.0754 39.3Z" fill="white"/>
<path d="M55.2531 37.4828C57.0575 37.4828 57.9598 38.2148 57.9598 39.6789C57.9598 39.9241 57.9337 40.1881 57.8812 40.4705L57.4881 42.7C57.3084 43.733 56.9189 44.4985 56.3199 44.9964C55.721 45.4943 54.8787 45.7433 53.7932 45.7433C52.7075 45.7433 51.9516 45.4943 51.5249 44.9964C51.2329 44.6545 51.0869 44.1826 51.0869 43.5806C51.0869 43.3131 51.1166 43.0195 51.1764 42.7L51.5696 40.4705C51.9215 38.4787 53.1493 37.4828 55.2531 37.4828ZM54.0964 44.0154C54.4707 44.0154 54.7705 43.9188 54.9951 43.7256C55.2197 43.5323 55.3765 43.1756 55.4664 42.6554L55.8486 40.515C55.8711 40.3664 55.882 40.2326 55.882 40.1137C55.882 39.5117 55.5752 39.2107 54.9613 39.2107C54.1902 39.2256 53.7296 39.6604 53.5799 40.515L53.1981 42.6554C53.1681 42.8412 53.1533 43.0344 53.1533 43.2351C53.1533 43.7553 53.4675 44.0154 54.0964 44.0154Z" fill="white"/>
<path d="M66 37.5609L64.5852 45.5873H62.5526L61.1374 41.195L60.3738 45.5873H58.3412L59.7674 37.5609H61.8562L63.2486 41.6633L63.9788 37.5609H66Z" fill="white"/>
<path d="M20.0514 59.1435H13.6573L15.438 49.1221H17.9621L16.5737 56.9721H20.4437L20.0514 59.1435Z" fill="white"/>
<path d="M25.4774 49.1221L23.7107 59.1435H21.173L22.9538 49.1221H25.4774Z" fill="white"/>
<path d="M31.3946 49.1221C32.6192 49.1221 33.4931 49.4283 34.0166 50.0408C34.3998 50.5047 34.5919 51.0846 34.5919 51.7806C34.5919 52.0311 34.5684 52.2955 34.5217 52.5739L33.9749 55.6777C33.7879 56.7263 33.3296 57.566 32.6005 58.197C31.8714 58.828 30.9274 59.1435 29.7683 59.1435H25.6881L27.4689 49.1221H31.3946ZM30.5112 51.2933H29.5998L28.6046 56.9721H29.9364C30.3757 56.9721 30.7171 56.8562 30.9602 56.6242C31.2126 56.3829 31.3854 55.9932 31.4789 55.455L31.8856 53.1724C31.9231 52.9683 31.9418 52.7826 31.9418 52.6156C31.9418 51.7341 31.4647 51.2933 30.5112 51.2933Z" fill="white"/>
<path d="M42.1073 59.1435H35.0685L36.8493 49.1221H43.888L43.4957 51.2933H38.9806L38.6581 53.1724H42.3877L41.9954 55.3437H38.2654L37.985 56.9721H42.5L42.1073 59.1435Z" fill="white"/>
<path d="M49.5667 49.1221C50.6323 49.1221 51.3893 49.354 51.838 49.818C52.1745 50.1706 52.3431 50.616 52.3431 51.1542C52.3431 51.3398 52.3243 51.5347 52.287 51.7388L52.0908 52.8245C51.9786 53.4276 51.7823 53.9147 51.5019 54.2859C51.2308 54.657 50.927 54.9215 50.5905 55.0792L51.8661 59.1435H49.034L47.8561 55.3994H46.9868L46.412 59.1435H43.7198L45.5005 49.1221H49.5667ZM48.6833 51.2933H47.6319L47.2672 53.7153H48.2485C48.7439 53.7153 49.0994 53.5992 49.3144 53.3672C49.5294 53.126 49.6369 52.8105 49.6369 52.4208C49.6369 51.6691 49.319 51.2933 48.6833 51.2933Z" fill="white"/>
<path d="M41.8432 63.5042C41.9283 62.573 33.0362 63.2191 26.0008 63.0083C24.7834 63.0595 23.6295 63.2085 23.8804 65.5283C23.3244 85.3882 41.6666 83.7565 42.1539 67.0372C34.9626 85.1839 27.7222 73.6842 28.6495 66.659C32.7874 66.3273 38.3154 65.6664 41.8432 63.5042Z" fill="#00A85C"/>
</svg>
