<svg width="33" height="40" viewBox="0 0 33 40" fill="none" xmlns="http://www.w3.org/2000/svg">
<path d="M6.16621 17.611C-3.67716 2.57272 8.89292 -6.16319 11.5085 17.2431C8.70509 5.86849 2.23693 3.16463 6.16621 17.611Z" fill="white"/>
<path d="M28.4805 2.72511C25.9124 2.66893 21.6429 7.3911 19.8271 17.4383C24.474 8.88772 28.0291 5.47061 27.9234 10.0094C28.8415 9.21328 29.6764 8.44469 30.3991 7.68009C30.9141 4.44715 29.9922 2.75818 28.4805 2.72511ZM29.4106 11.3222C28.8725 11.6695 28.2903 12.0082 27.6672 12.3312C27.4303 13.717 27.0264 15.45 26.4314 17.5586C27.7817 15.2099 28.7524 13.1286 29.4106 11.3222Z" fill="white"/>
<path d="M18.4782 17.5227C22.2292 -7.39366 10.621 -4.16555 12.9591 17.3007C14.3141 5.34116 17.3907 3.34489 18.4782 17.5227Z" fill="white"/>
<path d="M2.34157 18.7805C2.76832 18.7805 3.07157 18.8734 3.25125 19.0591C3.38601 19.2004 3.45333 19.3787 3.45333 19.5942C3.45333 19.6685 3.44593 19.7466 3.43095 19.8284L3.38026 20.0959C3.33909 20.3077 3.25869 20.4731 3.13891 20.592C3.02286 20.7109 2.91982 20.7703 2.82998 20.7703L2.82449 20.8149C2.92931 20.8149 3.03605 20.8725 3.14461 20.9877C3.25316 21.1029 3.30742 21.2385 3.30742 21.3946C3.30742 21.4578 3.2998 21.5246 3.28482 21.5953L3.25125 21.768C3.19135 22.0876 3.04713 22.3384 2.81879 22.5205C2.59418 22.7026 2.27982 22.7936 1.87553 22.7936H0L0.713089 18.7805H2.34157ZM1.83626 21.1549H1.30265L1.16793 21.9241H1.70132C1.70881 21.9241 1.71643 21.9241 1.72392 21.9241C1.89611 21.9241 2.03271 21.8851 2.13378 21.8071C2.23486 21.7253 2.2854 21.6269 2.2854 21.5117C2.2854 21.2739 2.13573 21.1549 1.83626 21.1549ZM1.98787 19.65H1.5666L1.42069 20.4805H1.83626C2.19562 20.4805 2.37536 20.3244 2.37536 20.0123C2.37536 19.9045 2.34159 19.8172 2.27421 19.7503C2.21058 19.6834 2.11516 19.65 1.98787 19.65Z" fill="white"/>
<path d="M5.64886 22.7936L5.68265 21.9185H4.74488L4.46974 22.7936H3.39725L4.84032 18.7805H6.69348L6.71586 22.7936H5.64886ZM5.41869 19.7559L4.97504 21.1716H5.71073L5.77239 19.7559H5.41869Z" fill="white"/>
<path d="M9.53456 18.7805C10.0249 18.7805 10.3748 18.9031 10.5845 19.1483C10.7379 19.3341 10.8148 19.5664 10.8148 19.8451C10.8148 19.9454 10.8055 20.0513 10.7868 20.1628L10.5678 21.4058C10.4929 21.8257 10.3095 22.1619 10.0175 22.4146C9.7255 22.6673 9.34732 22.7936 8.88313 22.7936H7.24917L7.96226 18.7805H9.53456ZM9.18087 19.65H8.81577L8.4171 21.9241H8.95049C9.12643 21.9241 9.26324 21.8777 9.36057 21.7848C9.46165 21.6882 9.5307 21.5321 9.56814 21.3166L9.73116 20.4025C9.74614 20.3207 9.75354 20.2464 9.75354 20.1795C9.75354 19.8265 9.56269 19.65 9.18087 19.65Z" fill="white"/>
<path d="M12.7746 18.7805L13.3755 20.7035L14.667 18.7805H15.7281L15.015 22.7936H13.9987L14.403 20.5307L13.5383 21.8795H12.8026L12.4209 20.5307L12.0165 22.7936H11.0059L11.719 18.7805H12.7746Z" fill="white"/>
<path d="M17.5361 18.7805L16.8285 22.7936H15.8122L16.5253 18.7805H17.5361Z" fill="white"/>
<path d="M21.4498 18.7805L20.7424 22.7936H19.7261L19.0185 20.5975L18.6367 22.7936H17.6204L18.3335 18.7805H19.3779L20.0741 20.8316L20.4392 18.7805H21.4498Z" fill="white"/>
<path d="M25.5377 19.65H24.1565L23.6005 22.7936H22.5842L23.14 19.65H21.7531L21.9104 18.7805H25.695L25.5377 19.65Z" fill="white"/>
<path d="M27.6266 18.7414C28.5287 18.7414 28.9799 19.1074 28.9799 19.8394C28.9799 19.9621 28.9668 20.094 28.9406 20.2352L28.744 21.35C28.6542 21.8665 28.4594 22.2492 28.1599 22.4982C27.8605 22.7472 27.4394 22.8716 26.8966 22.8716C26.3538 22.8716 25.9758 22.7472 25.7624 22.4982C25.6164 22.3273 25.5435 22.0913 25.5435 21.7903C25.5435 21.6565 25.5583 21.5098 25.5882 21.35L25.7848 20.2352C25.9608 19.2394 26.5747 18.7414 27.6266 18.7414ZM27.0482 22.0077C27.2354 22.0077 27.3852 21.9594 27.4975 21.8628C27.6099 21.7662 27.6883 21.5878 27.7332 21.3277L27.9243 20.2575C27.9355 20.1832 27.941 20.1163 27.941 20.0569C27.941 19.7559 27.7876 19.6054 27.4806 19.6054C27.0951 19.6128 26.8648 19.8302 26.7899 20.2575L26.5991 21.3277C26.5841 21.4206 26.5767 21.5172 26.5767 21.6175C26.5767 21.8777 26.7337 22.0077 27.0482 22.0077Z" fill="white"/>
<path d="M33 18.7805L32.2926 22.7936H31.2763L30.5687 20.5975L30.1869 22.7936H29.1706L29.8837 18.7805H30.9281L31.6243 20.8316L31.9894 18.7805H33Z" fill="white"/>
<path d="M10.0257 29.5717H6.82863L7.71901 24.5611H8.98107L8.28685 28.4861H10.2218L10.0257 29.5717Z" fill="white"/>
<path d="M12.7387 24.561L11.8554 29.5717H10.5865L11.4769 24.561H12.7387Z" fill="white"/>
<path d="M15.6973 24.561C16.3096 24.561 16.7466 24.7142 17.0083 25.0204C17.1999 25.2524 17.2959 25.5423 17.2959 25.8903C17.2959 26.0155 17.2842 26.1478 17.2608 26.2869L16.9874 27.8389C16.894 28.3631 16.6648 28.783 16.3002 29.0985C15.9357 29.414 15.4637 29.5717 14.8842 29.5717H12.8441L13.7344 24.561H15.6973ZM15.2556 25.6467H14.7999L14.3023 28.4861H14.9682C15.1879 28.4861 15.3586 28.4281 15.4801 28.3121C15.6063 28.1915 15.6927 27.9966 15.7394 27.7275L15.9428 26.5862C15.9615 26.4841 15.9709 26.3913 15.9709 26.3078C15.9709 25.867 15.7324 25.6467 15.2556 25.6467Z" fill="white"/>
<path d="M21.0536 29.5717H17.5343L18.4246 24.561H21.944L21.7479 25.6467H19.4903L19.3291 26.5862H21.1938L20.9977 27.6719H19.1327L18.9925 28.4861H21.25L21.0536 29.5717Z" fill="white"/>
<path d="M24.7833 24.561C25.3162 24.561 25.6947 24.677 25.919 24.909C26.0873 25.0853 26.1716 25.308 26.1716 25.5771C26.1716 25.6699 26.1622 25.7673 26.1435 25.8694L26.0454 26.4122C25.9893 26.7138 25.8912 26.9574 25.7509 27.1429C25.6154 27.3285 25.4635 27.4607 25.2952 27.5396L25.9331 29.5717H24.517L23.9281 27.6997H23.4934L23.206 29.5717H21.8599L22.7503 24.561H24.7833ZM24.3417 25.6467H23.816L23.6336 26.8576H24.1242C24.3719 26.8576 24.5497 26.7996 24.6572 26.6836C24.7647 26.563 24.8184 26.4052 24.8184 26.2104C24.8184 25.8346 24.6595 25.6467 24.3417 25.6467Z" fill="white"/>
<path d="M20.9216 31.7521C20.9642 31.2865 16.5181 31.6096 13.0004 31.5041C12.3917 31.5298 11.8148 31.6042 11.9402 32.7642C11.6622 42.6941 20.8333 41.8782 21.077 33.5186C17.4813 42.5919 13.8611 36.8421 14.3248 33.3295C16.3937 33.1637 19.1577 32.8332 20.9216 31.7521Z" fill="white"/>
</svg>
