<svg width="153" height="60" viewBox="0 0 153 60" fill="none" xmlns="http://www.w3.org/2000/svg">
<path fill-rule="evenodd" clip-rule="evenodd" d="M57.4487 35.0427C71.885 33.4787 101.261 29.8149 105.307 32.8553L105.023 41.1016C96.0877 43.803 73.1974 43.5733 56.5738 42.4359C56.869 39.9751 57.1534 37.5034 57.4487 35.0427ZM37.6315 5.27298C69.7961 -2.55769 116.452 -0.0969334 120.936 2.69192C121.92 6.15886 122.893 9.62579 123.878 13.0927C103.24 10.7851 62.7858 10.1836 35.127 13.3115L37.6315 5.28392V5.27298ZM56.3878 17.4237L46.698 17.0627V42.3484H53.7084L56.3769 17.4237H56.3878ZM59.472 17.2487C79.2891 18.5173 110.262 21.3718 120.99 20.2344C120.28 22.9904 119.569 25.7574 118.869 28.5135C114.614 26.9386 92.249 28.076 57.4596 33.8068L59.472 17.2487ZM121.461 23.0998V42.3593H108.84L108.884 33.61L117.206 31.5539L119.93 30.2087L120.072 27.8135L121.45 23.1107L121.461 23.0998Z" fill="#555555"/>
<path fill-rule="evenodd" clip-rule="evenodd" d="M31.1798 17.0625H43.6912V42.3482H31.1798V17.0625Z" fill="#555555"/>
<path fill-rule="evenodd" clip-rule="evenodd" d="M15.5977 17.0625H28.0983V42.3482H15.5977V17.0625Z" fill="#555555"/>
<path fill-rule="evenodd" clip-rule="evenodd" d="M0 17.0623H12.5115V42.348H0V17.0623Z" fill="#555555"/>
<path fill-rule="evenodd" clip-rule="evenodd" d="M140.141 17.0625H152.642V42.3482H140.141V17.0625Z" fill="#555555"/>
<path fill-rule="evenodd" clip-rule="evenodd" d="M124.547 17.0623H137.048V42.348H124.547V17.0623Z" fill="#555555"/>
<path d="M0.010939 59.771H2.37325V55.0354L3.5544 53.5918L7.24004 59.7601H10.0289L5.23864 52.0278L9.73359 46.297H6.80258L3.36848 51.0326C3.06225 51.4919 2.73416 51.9731 2.417 52.4872H2.36231V46.297H0V59.7601L0.010939 59.771Z" fill="#555555"/>
<path d="M18.2648 55.954L19.446 59.7709H22.027L17.7836 46.3078H14.7432L10.5545 59.7709H13.0152L14.1417 55.954H18.2757H18.2648ZM14.5245 54.0947L15.5306 50.7809C15.7384 49.9825 15.9572 49.042 16.154 48.2655H16.1978C16.3946 49.042 16.6024 49.9607 16.854 50.7809L17.882 54.0947H14.5245Z" fill="#555555"/>
<path d="M35.0737 59.7708H37.4032L36.6486 46.3077H33.5426L31.7381 51.6995C31.235 53.2744 30.7866 54.9368 30.4366 56.3914H30.3819C30.0538 54.893 29.6492 53.2963 29.1789 51.7214L27.4728 46.3077H24.334L23.459 59.7708H25.6901L25.9854 54.3571C26.0838 52.5198 26.1604 50.3871 26.2151 48.6263H26.2588C26.6088 50.2996 27.0681 52.137 27.5822 53.854L29.332 59.6067H31.1584L33.0723 53.7775C33.652 52.0823 34.1988 50.2668 34.6253 48.6263H34.68C34.6581 50.4418 34.7566 52.5416 34.8331 54.2806L35.0847 59.7708H35.0737Z" fill="#555555"/>
<path d="M39.8204 59.7711H42.1827V54.6746C42.5108 54.7511 42.9045 54.773 43.342 54.773C45.0263 54.773 46.5027 54.2918 47.4761 53.3184C48.1979 52.5966 48.5806 51.5576 48.5806 50.278C48.5806 48.9984 48.0776 47.9595 47.3011 47.3032C46.4699 46.5814 45.2122 46.2096 43.4623 46.2096C41.8765 46.2096 40.6954 46.3299 39.8204 46.4939V59.7711ZM42.1937 48.2219C42.4452 48.1673 42.9155 48.1016 43.5717 48.1016C45.2231 48.1016 46.2293 48.8781 46.2293 50.3765C46.2293 51.8748 45.1466 52.8482 43.3639 52.8482C42.8827 52.8482 42.5108 52.8263 42.2046 52.7278V48.211L42.1937 48.2219Z" fill="#555555"/>
<path d="M50.6388 46.3077V54.0181C50.6388 58.2506 52.5965 59.9895 55.6259 59.9895C58.6553 59.9895 60.8427 58.1522 60.8427 53.9962V46.3077H58.4585V54.1603C58.4585 56.796 57.4305 58.01 55.7025 58.01C54.0948 58.01 53.023 56.796 53.023 54.1603V46.3077H50.6388Z" fill="#555555"/>
<path d="M62.9849 59.136C63.7067 59.5953 65.1394 60 66.5284 60C69.8859 60 71.4717 58.1189 71.4717 55.9425C71.4717 54.0067 70.389 52.8255 68.1142 51.9506C66.3643 51.2506 65.6097 50.7694 65.6097 49.7304C65.6097 48.932 66.255 48.1118 67.7642 48.1118C68.9891 48.1118 69.8969 48.4946 70.3781 48.7461L70.9359 46.7884C70.2578 46.4056 69.2297 46.0885 67.8189 46.0885C64.9645 46.0885 63.1818 47.7509 63.1818 49.9601C63.1818 51.8959 64.5598 53.077 66.7253 53.8754C68.3767 54.4988 69.0329 55.0894 69.0329 56.1065C69.0329 57.2002 68.1798 57.9439 66.6706 57.9439C65.4457 57.9439 64.2645 57.5501 63.5099 57.0799L62.9631 59.1141L62.9849 59.136Z" fill="#555555"/>
<path d="M85.6452 59.7702L87.1545 53.4378C87.5373 51.8958 87.7888 50.6052 88.0075 49.1616H88.0513C88.2263 50.6162 88.456 51.8958 88.7841 53.4378L90.1402 59.7702H92.6775L96.21 46.3071H93.7821L92.4259 52.377C92.076 54.0394 91.7697 55.5705 91.5401 57.047H91.4963C91.2995 55.5924 91.0151 54.094 90.698 52.4973L89.3965 46.3071H86.892L85.4812 52.3989C85.1093 54.0941 84.7484 55.6908 84.5297 57.1126H84.486C84.2782 55.7783 83.961 54.0612 83.6329 52.4207L82.3971 46.3071H79.8598L83.0533 59.7702H85.6452Z" fill="#555555"/>
<path d="M97.8069 46.3072V59.7703H100.191V46.3072H97.8069Z" fill="#555555"/>
<path d="M110.23 51.7973H105.308V48.3304H110.514V46.3071H102.924V59.7702H110.81V57.7578H105.308V53.7988H110.23V51.7973Z" fill="#555555"/>
<path d="M112.9 59.7702H120.655V57.7141H115.285V46.3071H112.9V59.7702Z" fill="#555555"/>
<path d="M122.461 46.3077V59.7708H124.845V46.3077H122.461Z" fill="#555555"/>
<path d="M136.554 57.4517C135.92 57.7361 134.903 57.9329 133.962 57.9329C131.075 57.9329 129.402 56.0518 129.402 53.077C129.402 49.8398 131.316 48.1227 133.973 48.1227C135.034 48.1227 135.909 48.3633 136.532 48.6477L137.035 46.69C136.554 46.4275 135.45 46.0885 133.875 46.0885C129.883 46.0885 126.875 48.768 126.875 53.1973C126.875 57.3095 129.391 59.989 133.547 59.989C135.132 59.989 136.379 59.6719 136.937 59.3875L136.543 57.4517H136.554Z" fill="#555555"/>
<path d="M138.97 59.77H141.333V55.0344L142.514 53.5908L146.199 59.7591H148.988L144.198 52.0268L148.693 46.296H145.762L142.328 51.0316C142.022 51.4909 141.683 51.9722 141.376 52.4862H141.322V46.296H138.959V59.7591L138.97 59.77Z" fill="#555555"/>
<path d="M150.26 46.3078V59.7709H152.644V46.3078H150.26Z" fill="#555555"/>
</svg>
