<svg width="39" height="60" viewBox="0 0 39 60" fill="none" xmlns="http://www.w3.org/2000/svg">
<g clip-path="url(#clip0_968_2569)">
<path d="M21.6449 7.24869C22.4246 7.21986 23.299 7.24005 24.0869 7.24017L28.4474 7.24063C28.4783 7.72857 28.4576 8.47227 28.4578 8.97187L28.4538 21.7391C27.3604 21.766 26.2577 21.734 25.1633 21.7494C24.78 21.7547 24.388 21.753 24.0054 21.7384L24.0039 17.0746C23.9989 16.4105 23.9983 15.7464 24.0019 15.0822C24.0048 14.7274 24.0382 13.8312 23.9727 13.5402C23.7835 14.1167 23.6499 14.685 23.4828 15.2651L22.2578 19.5788L21.8837 20.9037C21.8164 21.1425 21.7195 21.5275 21.6239 21.7423C20.3205 21.7513 18.7441 21.7903 17.4582 21.741C16.8421 19.715 16.3072 17.6018 15.6972 15.5699C15.582 15.1863 15.2236 13.7449 15.0798 13.5162C15.1437 15.707 15.06 17.9273 15.0937 20.1211C15.1016 20.639 15.1094 21.2288 15.0803 21.7419C13.7026 21.7524 12.3248 21.7524 10.9471 21.7418C10.9095 20.7129 10.9481 19.4218 10.9482 18.3746L10.9492 11.5016L10.9464 8.60596C10.9457 8.38304 10.9303 7.39561 10.9686 7.24292C12.5964 7.20346 14.2566 7.26554 15.8877 7.23935C16.4827 7.22976 17.1569 7.22016 17.7477 7.24957C17.9024 7.64162 18.1816 8.82269 18.306 9.29142L19.3561 13.1836C19.4677 13.5966 19.6438 14.3831 19.7852 14.7323C19.94 14.2321 20.1 13.4582 20.2325 12.9243L21.1859 9.07146C21.2818 8.68251 21.5109 7.58616 21.6449 7.24869Z" fill="#555555"/>
<path d="M6.21569 24.0628C6.77969 24.0384 7.44541 24.0567 8.01703 24.0616L11.3046 24.0924L14.0449 24.1012C15.2075 24.1054 16.3664 24.0632 17.4636 24.5287C17.9663 24.742 18.6722 25.1568 18.6736 25.7777C18.6768 27.1938 18.6749 28.6104 18.6767 30.0264C18.6776 30.7667 17.769 30.9604 17.2119 31.1625C17.626 31.2334 17.9549 31.3512 18.2597 31.655C18.3494 31.7443 18.5556 32.013 18.5664 32.127C18.6251 32.746 18.5973 33.5306 18.5943 34.1502L18.5949 37.326C18.5338 39.0753 16.1979 38.8913 14.9912 38.8901L12.2857 38.8875L8.38725 38.8881C7.69702 38.8887 6.87078 38.9127 6.19367 38.8775C6.15356 35.2497 6.19297 31.548 6.19089 27.9145L6.18955 25.3151C6.18949 25.1032 6.17512 24.203 6.21569 24.0628ZM13.1405 36.0896C13.1563 36.0718 13.1722 36.0539 13.188 36.0363C13.2201 35.4448 13.1716 34.5299 13.2017 33.9712C12.6142 33.9542 11.906 33.9574 11.3149 33.9691L11.2786 33.9999C11.2295 34.6351 11.2848 35.4296 11.2595 36.0847C11.86 36.0908 12.5465 36.1081 13.1405 36.0896ZM11.2695 29.3481C11.9084 29.3235 12.579 29.3575 13.1949 29.33L13.1902 27.5043C12.8326 27.4648 11.6836 27.4725 11.2786 27.49C11.2363 27.8829 11.2545 28.9375 11.2695 29.3481Z" fill="#555555"/>
<path d="M22.4247 24.1219C22.4826 24.1113 22.6603 24.107 22.727 24.1063L30.9046 24.1041C31.5143 24.104 32.3636 24.022 32.8231 24.4827C33.1038 24.7641 33.0168 25.6404 33.0165 26.0538L33.0133 28.2682L29.6879 28.2735C29.1849 28.2739 28.0685 28.2882 27.5184 28.2546C27.3079 28.2418 27.458 27.5164 27.2419 27.3561C26.9542 27.1426 26.3887 27.0873 26.1124 27.367C25.9129 27.6668 26.0252 28.2833 26.0058 28.636C25.9562 29.5356 27.4361 29.3625 28.0179 29.3587L30.5567 29.3543C31.2593 29.3549 33.0562 29.1841 33.0942 30.2426C33.1117 30.7292 33.0983 31.2943 33.0977 31.7871L33.096 34.7411L33.0974 36.8323C33.0977 37.2322 33.1401 37.9667 33.0235 38.3165C32.859 38.8096 31.8757 38.9145 31.4796 38.9297L22.7789 38.9367C22.3833 38.9344 21.3044 38.8822 21.211 38.3376C21.1426 37.9394 21.1767 37.3125 21.1764 36.888C21.1725 35.9399 21.1749 34.9919 21.1835 34.0436C22.6745 34.0084 24.3414 34.0415 25.8408 34.0406C25.8887 34.6104 25.7502 35.7003 25.9488 36.1693C26.0463 36.3996 27.5243 36.5903 27.5175 35.8418C27.4906 32.8813 28.0876 32.6763 24.9622 32.6848L22.6073 32.69C22.1888 32.6903 21.6817 32.7038 21.2692 32.6777C21.2093 30.1327 21.2958 27.5487 21.2733 25.0005C21.2674 24.3392 21.8806 24.2007 22.4247 24.1219Z" fill="#555555"/>
<path d="M18.7953 55.171C19.2355 55.1675 20.2881 55.0907 20.6544 55.2135C20.7162 55.234 20.766 55.2507 20.7948 55.311C20.8566 55.4402 20.8754 55.6049 20.8846 55.7467C20.9125 56.1756 20.927 59.5676 20.8456 59.7536C20.795 59.8693 20.6642 59.9256 20.5573 59.9757C20.15 59.9877 18.9538 60.0539 18.6223 59.9101C18.5519 59.8796 18.5003 59.8456 18.4763 59.7706C18.3752 59.4548 18.3637 55.5308 18.4722 55.3485C18.54 55.2349 18.6776 55.205 18.7953 55.171Z" fill="#555555"/>
<path d="M0 0.265447C0.354488 0.0277922 0.962202 0.191348 1.38046 0.146134C1.60081 0.122315 1.93275 0.117717 2.11101 0.266099C2.27043 0.557326 2.22448 1.48208 2.22864 1.84078L2.26045 3.58362L2.61049 29.4768L2.66869 33.3023C2.67947 34.0131 2.68451 34.7285 2.69417 35.4349C2.73153 38.1642 4.37449 40.7101 7.07136 41.4393C8.28287 41.7668 9.38133 41.7234 10.6178 41.7565C13.9926 41.9259 17.6517 42.6155 18.2395 46.5434C18.2798 46.8117 18.3047 47.0818 18.3141 47.3528C18.3596 48.535 18.3157 49.7353 18.3256 50.9194C18.3301 51.4603 18.3462 52.05 18.291 52.5826C18.2669 52.8149 17.9685 52.8747 17.7796 52.8759C17.1471 52.8797 16.5141 52.8756 15.8813 52.8756L9.17409 52.8753C7.49139 52.8785 7.07913 53.0247 5.53502 52.2205C3.63053 51.2367 2.10098 49.6526 1.1814 47.7123C0.0982167 45.4497 0.0863261 43.4903 0.08584 41.0616L0.0841123 37.3503L0.0284439 22.5823C0.0272257 22.3009 0.0396766 21.3767 0 21.138V0.265447Z" fill="#555555"/>
<path d="M37.2177 0H39V32.4258C38.9658 32.6016 38.9699 33.2183 38.9699 33.4219L38.9702 35.1709L38.9533 39.8133C38.9524 41.9537 39.0783 43.9312 38.4958 46.0163C37.7911 48.6091 36.0719 50.8063 33.7281 52.1089C32.3317 52.892 31.985 52.8776 30.4405 52.8782L23.7592 52.8773C22.9498 52.8785 22.1362 52.8976 21.3274 52.8771C21.2055 52.8741 21.0658 52.8735 20.9495 52.8337C20.876 52.8085 20.7934 52.7191 20.7617 52.6494C20.6532 52.4109 20.7095 47.441 20.7668 46.904C20.8301 46.3104 20.9465 45.7233 21.1768 45.1705C22.2827 42.5153 25.4577 41.9332 28.0139 41.7826C29.6047 41.6889 31.1509 41.8263 32.6624 41.1996C34.4658 40.452 35.6261 38.8998 36.1426 37.0462C36.4602 35.9068 36.3521 34.6482 36.3769 33.4752L36.7625 5.30924C36.7719 4.65264 36.7558 0.500323 36.8797 0.232929C36.9454 0.0908098 37.0816 0.0480223 37.2177 0Z" fill="#555555"/>
<path d="M30.8299 0H32.602C32.8079 0.0621026 32.9572 0.156698 32.9651 0.384858C32.9987 1.37975 32.9811 2.37862 32.9809 3.37453L32.9817 17.1434C32.9829 18.5626 33.0273 19.9957 32.9791 21.4136C32.9753 21.5191 32.9528 21.6245 32.8769 21.7035C32.6741 21.9155 31.533 21.8413 31.1965 21.8378C31.0425 21.8362 30.6774 21.823 30.5725 21.6889C30.4428 21.5227 30.5036 17.8939 30.5038 17.2864L30.5009 1.68226C30.5006 1.23627 30.4799 0.682125 30.5357 0.239067C30.5474 0.144755 30.7454 0.0442922 30.8299 0Z" fill="#555555"/>
<path d="M6.69909 0H8.51015C8.68996 0.0620757 8.73956 0.0903349 8.84023 0.250751C8.90389 1.05576 8.86822 2.21234 8.86749 3.03879L8.87056 7.86615L8.86442 16.5296C8.8646 18.0795 8.88549 19.6289 8.86956 21.1795C8.8667 21.4564 8.87105 21.8481 8.4668 21.8251C8.13674 21.8063 6.63108 21.9363 6.47642 21.7037C6.3549 21.521 6.39515 20.3566 6.39539 20.0534L6.39463 1.73733C6.39425 1.28912 6.37999 0.758493 6.41607 0.311432C6.42802 0.163604 6.58072 0.0791798 6.69909 0Z" fill="#555555"/>
<path d="M24.6933 0H26.5409C26.6905 0.0901784 26.8335 0.165527 26.8351 0.363598C26.8478 1.89496 26.8893 3.44511 26.8168 4.97344C26.7974 5.38081 25.7912 5.2292 25.5261 5.24933C24.1126 5.35667 24.38 5.00684 24.3742 3.92189L24.3706 1.53171C24.3704 1.1497 24.3437 0.637087 24.4024 0.261399C24.4212 0.140625 24.5884 0.0601304 24.6933 0Z" fill="#555555"/>
<path d="M18.93 0H20.6974C20.7933 0.0549524 20.9104 0.111565 20.9621 0.214925C21.0426 0.375727 21.0509 4.7661 20.9902 4.95478C20.9529 5.07047 20.886 5.15745 20.7737 5.20772C20.5717 5.29816 18.9304 5.28665 18.7168 5.19021C18.649 5.15962 18.6282 5.13718 18.6047 5.06566C18.561 4.9326 18.5476 4.77176 18.5416 4.63236C18.5206 4.14706 18.49 0.377402 18.5923 0.199426C18.6611 0.0797742 18.8064 0.0364658 18.93 0Z" fill="#555555"/>
<path d="M12.5502 0H14.2934C14.4083 0.0323376 14.5381 0.0922799 14.6065 0.194354C14.7023 0.337169 14.7074 4.58194 14.6336 4.95524C14.6163 5.04264 14.602 5.12432 14.522 5.17251C14.3545 5.27329 12.7349 5.29172 12.5131 5.23213C12.4021 5.2023 12.3073 5.14025 12.2516 5.03754C12.2048 4.95108 12.187 4.84564 12.1837 4.74785C12.1757 4.50302 12.1994 4.2554 12.1985 4.00989C12.1962 3.43084 12.1238 0.564073 12.2452 0.223872C12.2849 0.112585 12.4495 0.0447504 12.5502 0Z" fill="#555555"/>
</g>
<defs>
<clipPath id="clip0_968_2569">
<rect width="39" height="60" fill="white"/>
</clipPath>
</defs>
</svg>
