<svg width="160" height="60" viewBox="0 0 160 60" fill="none" xmlns="http://www.w3.org/2000/svg">
<path d="M34.1106 34.5144L30.7192 41.8028H22.0803L25.1209 34.9578L34.1106 34.5144Z" fill="#555555"/>
<path d="M20.5729 60L13.3223 55.6384L14.8973 47.9093L21.7352 51.8735L20.5729 60Z" fill="#555555"/>
<path d="M0 51.8633L5.67278 45.8708L13.8974 48.2708L8.70779 53.9453L0 51.8633Z" fill="#555555"/>
<path d="M11.7071 40.1976L6.75023 39.2775L5.75221 34.788L10.3959 35.5752L11.7071 40.1976Z" fill="#555555"/>
<path d="M32.9729 49.9236L24.7033 52.3594L19.0489 46.414L26.722 44.0244L32.9729 49.9236Z" fill="#555555"/>
<path d="M16.3009 39.817L21.9581 43.8262L16.5213 41.7827L16.3009 39.817Z" fill="#555555"/>
<path d="M16.7759 43.4513L12.1055 45.7852L15.5324 42.5581L16.7759 43.4513Z" fill="#555555"/>
<path d="M43.8138 35.315C43.1806 32.8229 42.9069 32.8484 40.4123 32.4089V31.8054H45.8591L49.8315 46.74H49.8908L54.6468 31.8054H56.7243L62.1412 46.74H62.2004L65.5119 31.8054H67.4657L63.2235 50.2456H60.3656L55.1282 35.6421H55.0649L50.4311 50.2456H47.6333L43.8138 35.315Z" fill="#555555"/>
<path d="M79.8657 35.5359C79.8657 32.8229 79.7758 32.8229 77.0062 32.4089V31.8054H91.4229L91.5145 35.8619H90.672C90.672 33.6728 89.4058 33.0936 87.4195 33.0936H85.0709C83.5659 33.0936 83.176 33.2063 83.176 34.5198V39.9719H86.8186C88.895 39.9719 89.1071 38.7681 89.2865 37.862H90.1301V43.6154H89.2865C89.2865 42.1392 88.6252 41.2612 86.8186 41.2612H83.176V47.3714C83.176 48.9038 83.5659 48.961 85.0709 48.961H88.4135C90.1301 48.961 90.9414 48.4104 91.1241 46.2749H91.9637L91.8766 50.2456H79.8657V35.5359Z" fill="#555555"/>
<path d="M96.238 35.4221C96.238 33.1218 96.1481 33.0936 93.227 32.7421V32.1354L99.548 31.505V46.9062C99.548 48.961 99.548 48.961 101.567 48.961H104.152C106.053 48.961 107.707 48.8499 107.707 46.2749H108.545L108.458 50.2456H96.238V35.4221Z" fill="#555555"/>
<path d="M112.549 35.4221C112.549 33.1218 112.462 33.0936 109.54 32.7421V32.1354L115.862 31.505V50.2456H112.549V35.4221Z" fill="#555555"/>
<path d="M71.2302 35.4221C71.2302 33.1218 71.1419 33.0936 68.2191 32.7421V32.1354L74.5433 31.505V50.2456H71.2302V35.4221Z" fill="#555555"/>
<path d="M134.73 49.5334C133.98 49.8069 131.538 50.5518 128.561 50.5518C122.391 50.5518 120.016 46.9606 120.016 40.8225C120.016 35.7541 121.67 31.5047 128.378 31.5047C133.077 31.5047 134.91 33.3668 135.243 35.5625H131.631C131.481 34.6564 130.848 32.7955 128.109 32.7955C123.986 32.7955 123.324 37.3172 123.324 40.1378C123.324 43.2036 123.687 49.261 129.495 49.261C132.114 49.261 133.95 48.304 134.73 47.7786V49.5334Z" fill="#555555"/>
<path d="M138.551 35.4221C138.551 33.2598 138.31 33.0145 135.542 32.7421V32.1354L141.863 31.505V40.6301H141.922L149.388 31.8054H151.584L144.753 39.8646L152.818 50.2456H148.965L141.922 40.9623H141.863V50.2456H138.551V35.4221Z" fill="#555555"/>
<path d="M158.794 31.5689C158.798 31.62 158.811 31.6726 158.811 31.7262C158.811 32.5594 158.068 33.2342 157.155 33.2342C156.304 33.2342 155.61 32.6474 155.518 31.8947L153.11 32.1352V32.7419C156.031 33.0934 156.12 33.1216 156.12 35.4219V50.2454H159.431V31.5048L158.794 31.5689Z" fill="#555555"/>
<path d="M18.6963 31.8066H12.295L13.6523 38.9312L18.0672 47.4541L16.5472 37.8911L18.6963 31.8066Z" fill="#555555"/>
<path d="M0.625003 42.2401L5.78245 39.6444L10.3979 42.9338L5.62804 45.4312L0.625003 42.2401Z" fill="#555555"/>
<path d="M157.155 30.2181C156.24 30.2181 155.499 30.893 155.499 31.7262C155.499 31.7834 155.511 31.8401 155.518 31.8947L158.794 31.5689C158.706 30.811 158.01 30.2181 157.155 30.2181Z" fill="#555555"/>
<path d="M49.8439 19.3155H51.4118C53.787 19.3155 55.8338 18.6026 55.8338 15.3144C55.8338 12.246 54.239 11.644 51.5622 11.644C49.9351 11.644 49.8439 12.1641 49.8439 13.2875V19.3155ZM46.5353 14.0823C46.5353 11.3678 46.4732 11.3678 43.6447 10.9588V10.3571H53.036C56.7363 10.3571 59.1438 12.1924 59.1438 15.4242C59.1438 20.6012 54.6293 20.6012 50.8993 20.6012H49.8439V28.7959H46.5353V14.0823Z" fill="#555555"/>
<path d="M69.8244 27.8091C74.4921 27.8091 74.6704 23.1521 74.6704 19.6455C74.6704 16.0544 74.4009 11.341 69.8244 11.341C65.16 11.341 64.7979 15.9431 64.7979 19.6455C64.7979 23.0435 65.2528 27.8091 69.8244 27.8091ZM61.4905 19.6455C61.4905 13.7526 63.2941 10.0553 69.8244 10.0553C76.0854 10.0553 77.9834 13.7526 77.9834 19.6455C77.9834 25.4526 76.0854 29.0962 69.8244 29.0962C63.4753 29.0962 61.4905 25.5076 61.4905 19.6455Z" fill="#555555"/>
<path d="M81.2374 13.8613C80.6027 11.3678 80.3305 11.3947 77.8343 10.9588V10.3571H83.28L87.2567 25.2878H87.3128L92.0688 10.3571H94.1479L99.5648 25.2878H99.6225L102.936 10.3571H104.889L100.646 28.7959H97.7877L92.5518 14.1909H92.4886L87.856 28.7959H85.057L81.2374 13.8613Z" fill="#555555"/>
<path d="M108.651 13.9725C108.651 11.6707 108.562 11.644 105.641 11.2889V10.6843L111.964 10.0554V28.7959H108.651V13.9725Z" fill="#555555"/>
<path d="M21.9067 17.6976C21.8658 17.6672 21.8068 17.6683 21.7678 17.7001C21.7467 17.7168 19.6537 19.373 16.846 20.7265C17.0804 17.2557 18.2232 14.3927 18.2359 14.3633C18.2526 14.3199 18.2344 14.2702 18.1909 14.2459C18.1472 14.2228 18.0899 14.2293 18.0561 14.2652C17.0298 15.294 16.1106 16.5858 15.316 18.0951C13.4462 16.5119 12.1983 14.7263 12.1855 14.7071C12.1573 14.6661 12.1012 14.651 12.0534 14.6702C12.0045 14.6893 11.9791 14.7379 11.9917 14.7824C12.3989 16.2294 13.9515 18.0134 14.8723 18.9782C12.8664 23.2671 12.3861 27.896 12.3105 28.7853C12.3089 28.8112 12.3177 28.8379 12.3384 28.8582C12.3583 28.8774 12.3877 28.889 12.4171 28.889H18.598C18.6374 28.889 18.6737 28.8713 18.6919 28.8379C18.7119 28.8086 18.7102 28.7702 18.6891 28.7394C17.4484 26.9528 16.8153 24.6896 16.8038 22.0161C18.2809 21.138 20.8582 19.4535 21.929 17.8229C21.9557 17.782 21.9462 17.7284 21.9067 17.6976Z" fill="#555555"/>
<path d="M138.513 11.644H136.436C134.061 11.644 133.366 12.329 133.188 14.3278H132.344L132.465 10.3571H147.874L147.995 14.4119H147.15C147.15 12.2996 146.185 11.644 143.869 11.644H141.825V28.7959H138.513V11.644Z" fill="#555555"/>
<path d="M132.188 28.7959L124.845 10.3571H119.188V10.9588C120.39 11.1226 121.501 11.1494 121.501 12.2471C121.501 12.4401 121.171 13.3961 120.99 13.8613L115.004 28.7959H116.81L120.034 20.8211L122.857 13.8103L122.864 13.8294L122.884 13.7809L125.985 20.999C126.17 20.9323 126.368 20.8929 126.582 20.8929C127.497 20.8929 128.236 21.5688 128.236 22.401C128.236 23.0385 127.801 23.579 127.188 23.8L129.331 28.7959H132.188Z" fill="#555555"/>
<path d="M124.926 22.4011C124.926 23.2329 125.666 23.9077 126.582 23.9077C126.795 23.9077 126.998 23.8677 127.188 23.8L125.985 20.999C125.365 21.2174 124.926 21.7606 124.926 22.4011Z" fill="#555555"/>
<path d="M22.2725 1.80466L22.0565 1.34201C21.9315 1.07756 21.8459 0.804094 21.7516 0.529168C21.6998 0.375909 21.6267 0.12259 21.4778 0.023017C21.4078 -0.0240821 21.3489 0.00886165 21.2884 0.0524312C20.9052 0.335971 16.548 3.61301 15.1342 6.54844C13.8879 9.12634 16.7963 11.3357 17.6443 11.9082C18.0879 12.2088 18.7489 11.6361 19.1209 11.4268C21.4007 10.1573 23.5526 8.95753 23.6397 6.317C23.6469 4.72848 22.9489 3.24104 22.2725 1.80466Z" fill="#555555"/>
<path d="M13.8943 11.6948C13.7315 10.987 13.6348 10.2586 13.3344 9.58361C12.7519 8.27365 11.6106 7.40241 10.0663 7.17855C9.1173 7.04052 8.14876 7.1173 7.19695 7.18248C5.43373 7.30133 3.6904 7.61579 1.98499 8.02479C1.87389 8.05016 1.76447 8.07693 1.65504 8.10378C1.48233 8.14616 1.30972 8.18569 1.13977 8.23419C1.05976 8.25733 0.911021 8.26866 0.941579 8.38132C1.04425 8.75693 1.46244 9.1557 1.69688 9.4727C2.78077 10.9269 3.80273 12.5411 5.44527 13.5391C5.88862 13.8102 6.4839 14.0083 6.9964 14.1347C7.51012 14.2626 8.0405 14.297 8.5685 14.2459C9.63973 14.1423 10.6755 13.7642 11.6596 13.386C12.1494 13.1979 12.6421 13.0154 13.1208 12.8041C13.3427 12.707 13.5799 12.6266 13.7654 12.4759C13.9887 12.2919 13.9604 11.9877 13.8943 11.6948Z" fill="#555555"/>
<path d="M32.6019 10.3329C32.5585 10.3162 27.5582 8.79146 24.4222 9.22867C23.4609 9.36163 22.7562 9.85464 22.2182 10.568C21.755 11.1853 21.5867 11.8587 21.359 12.5665C21.2651 12.8607 21.2047 13.2082 21.2934 13.5099C21.3984 13.8599 21.7634 13.9827 22.0921 14.1167C23.6275 14.7431 25.3235 15.6785 27.0724 15.3669C27.5837 15.276 28.1424 15.0868 28.5917 14.8441C29.7691 14.1732 30.6087 13.1379 31.385 12.1105C31.5928 11.8371 31.7961 11.5595 32.0138 11.2914C32.1908 11.0726 32.3818 10.8669 32.5291 10.6292C32.5529 10.5922 32.5769 10.5539 32.6078 10.522C32.6345 10.4937 32.6751 10.4669 32.6779 10.4274C32.6807 10.3865 32.6441 10.3455 32.6019 10.3329Z" fill="#555555"/>
<path d="M34.6941 25.0565C34.5986 24.7717 32.1801 19.804 29.6055 17.6108C28.8138 16.9349 27.7429 16.6411 26.6801 16.7472C25.7875 16.8367 24.8707 17.1113 24.0777 17.496C23.7688 17.6456 23.1987 17.8793 23.0681 18.2013C22.9221 18.5617 23.1314 19.0476 23.2157 19.4041C23.7756 21.7925 24.3037 24.0468 27.0155 25.0003C27.9167 25.294 28.8758 25.4451 29.8288 25.4731C30.7373 25.4998 31.6496 25.4629 32.5566 25.4053C33.0408 25.3759 33.5235 25.3441 34.0093 25.3224C34.1566 25.3173 34.7801 25.3224 34.6941 25.0565Z" fill="#555555"/>
<path d="M10.0901 16.7701C10.0833 16.7752 10.0806 16.7767 10.0734 16.7803C10.0777 16.7792 10.0789 16.7741 10.0833 16.7715C10.0845 16.7701 10.0873 16.7715 10.0901 16.7701ZM10.1171 16.6067C10.1199 16.5542 10.114 16.4992 10.0972 16.4456C10.0228 16.2089 9.75905 16.0289 9.5724 15.8666C9.05152 15.4106 8.45503 14.9668 7.72921 14.8276C7.29389 14.7447 6.74794 14.8099 6.34087 14.9747C4.22792 15.8307 1.88103 18.5082 1.85993 18.535C1.83603 18.5644 1.83044 18.6093 1.84879 18.6412C1.86714 18.6716 1.90329 18.6796 1.9371 18.6922C3.28759 19.1791 4.71541 19.9026 6.2243 19.8885C8.06316 19.8297 8.88719 18.5901 9.75905 17.2762C9.89228 17.0769 10.1017 16.8519 10.1171 16.6067Z" fill="#555555"/>
<path d="M11.9073 20.472C11.8018 20.1181 11.5169 19.8471 11.1731 19.6696C10.6128 19.3819 10.1175 19.2899 9.50539 19.5023C8.95228 19.6938 8.42312 19.9866 8.01445 20.3815C7.80559 20.5832 7.62567 20.8068 7.48521 21.0535C6.80602 22.2496 7.02918 23.8805 8.15091 25.8984C8.15767 25.9135 8.17319 25.9241 8.19153 25.9266C8.20981 25.9302 8.22816 25.9251 8.24213 25.9135C8.41477 25.7719 12.4715 22.3992 11.9073 20.472Z" fill="#555555"/>
</svg>
