<svg width="156" height="60" viewBox="0 0 156 60" fill="none" xmlns="http://www.w3.org/2000/svg">
<path d="M19.3709 47.5437C23.9361 51.9784 30.197 54.7176 37.0448 54.7176C49.8927 54.7176 60.5231 45.1306 62.1535 32.6741L19.3709 47.5437ZM19.3709 11.2828L62.1535 26.1524C60.5883 13.6958 49.9579 4.10889 37.1101 4.10889C30.197 4.10889 23.9361 6.84802 19.3709 11.2828ZM54.3274 29.4132L4.30571 24.0654C3.9144 25.8263 3.71875 27.5871 3.71875 29.4132C3.71875 31.2393 3.9144 33.0654 4.30571 34.7611L54.3274 29.4132Z" fill="#555555"/>
<path d="M58.8927 27.2611C58.5014 27.0002 57.9796 26.7393 57.4579 26.5437L14.5448 12.7828C12.2622 15.3915 10.5014 18.4567 9.45788 21.848L55.3709 28.0437C55.3709 28.0437 58.1753 28.5002 58.1753 29.4132C58.1753 30.3263 55.3709 30.7828 55.3709 30.7828L9.5231 36.9785C10.5666 40.3698 12.3274 43.435 14.6101 46.0437L57.5231 32.2828C58.0448 32.0871 58.5666 31.8915 58.9579 31.5654C59.8057 30.9785 60.2622 30.1958 60.2622 29.4132C60.2622 28.6306 59.7405 27.848 58.8927 27.2611Z" fill="#555555"/>
<path d="M70.8927 15.6524V20.5437H69.1318V7.50019H72.9796C73.8275 7.50019 74.5448 7.56541 75.1318 7.76106C75.7188 7.95671 76.2405 8.21758 76.6318 8.60889C77.0231 8.93497 77.3492 9.3915 77.5448 9.91323C77.7405 10.435 77.8709 10.9567 77.8709 11.6089C77.8709 12.1958 77.7405 12.7828 77.5448 13.3045C77.3492 13.8263 77.0231 14.2176 76.6318 14.6089C76.2405 15.0002 75.7188 15.2611 75.1318 15.4567C74.5448 15.6524 73.8275 15.7828 73.0448 15.7828H70.8927V15.6524ZM72.9796 14.2828C73.5014 14.2828 73.9579 14.2176 74.284 14.0871C74.6753 13.9567 75.0014 13.7611 75.2622 13.5002C75.5231 13.2393 75.7188 12.9785 75.8492 12.6524C75.9796 12.3263 76.0448 11.935 76.0448 11.5437C76.0448 10.6958 75.784 10.0437 75.2622 9.58715C74.7405 9.13063 73.9579 8.86976 72.9144 8.86976H70.8275V14.2828H72.9796ZM96.5231 14.0219C96.5231 15.0002 96.3927 15.9132 96.0666 16.6958C95.7405 17.5437 95.3492 18.1958 94.7622 18.7828C94.1753 19.3698 93.5231 19.8263 92.7405 20.1524C91.9579 20.4785 91.0448 20.6089 90.1318 20.6089C89.1535 20.6089 88.3057 20.4785 87.5231 20.1524C86.7405 19.8263 86.0231 19.3698 85.5014 18.7828C84.9144 18.1958 84.5231 17.4785 84.197 16.6958C83.8709 15.848 83.7405 15.0002 83.7405 14.0219C83.7405 13.0437 83.8709 12.1306 84.197 11.348C84.5231 10.5002 84.9144 9.84802 85.5014 9.26106C86.0883 8.6741 86.7405 8.21758 87.5231 7.8915C88.3057 7.56541 89.2188 7.36976 90.1318 7.36976C91.1101 7.36976 91.9579 7.56541 92.7405 7.8915C93.5231 8.21758 94.2405 8.6741 94.7622 9.26106C95.3492 9.84802 95.7405 10.5654 96.0666 11.348C96.3927 12.1306 96.5231 13.0437 96.5231 14.0219ZM94.7622 14.0219C94.7622 13.2393 94.6318 12.5219 94.4361 11.8698C94.2405 11.2176 93.9144 10.6958 93.5231 10.2393C93.1318 9.7828 92.6101 9.45671 92.0883 9.19584C91.5014 8.93497 90.8492 8.86976 90.197 8.86976C89.4796 8.86976 88.8927 9.00019 88.3057 9.19584C87.7188 9.45671 87.2622 9.7828 86.8709 10.2393C86.4796 10.6958 86.1535 11.2176 85.9579 11.8698C85.7622 12.5219 85.6318 13.2393 85.6318 14.0219C85.6318 14.8045 85.7622 15.5219 85.9579 16.1741C86.1535 16.8263 86.4796 17.348 86.8709 17.8045C87.2622 18.2611 87.784 18.5871 88.3057 18.848C88.8927 19.1089 89.4796 19.1741 90.197 19.1741C90.9144 19.1741 91.5666 19.0437 92.0883 18.848C92.6753 18.5871 93.1318 18.2611 93.5231 17.8045C93.9144 17.348 94.2405 16.8263 94.4361 16.1741C94.6318 15.5219 94.7622 14.8045 94.7622 14.0219ZM105.067 19.0437H110.741V20.5437H103.306V7.50019H105.067V19.0437ZM123.654 9.52193L123.458 9.71758C123.393 9.7828 123.327 9.7828 123.197 9.7828C123.067 9.7828 123.001 9.71758 122.806 9.65237C122.675 9.52193 122.48 9.45671 122.284 9.32628C122.088 9.19584 121.827 9.06541 121.501 9.00019C121.175 8.86976 120.849 8.86976 120.458 8.86976C120.067 8.86976 119.741 8.93497 119.414 9.00019C119.088 9.13063 118.827 9.26106 118.632 9.45671C118.436 9.65237 118.306 9.84802 118.175 10.1089C118.045 10.3698 118.045 10.6306 118.045 10.8915C118.045 11.2828 118.11 11.5437 118.306 11.8045C118.501 12.0654 118.697 12.2611 119.023 12.3915C119.349 12.5871 119.675 12.7176 120.001 12.848L121.175 13.2393C121.567 13.3698 121.958 13.5002 122.349 13.6958C122.741 13.8915 123.067 14.0871 123.327 14.348C123.654 14.6089 123.849 14.935 124.045 15.2611C124.24 15.6524 124.306 16.1089 124.306 16.6306C124.306 17.2176 124.24 17.7393 124.045 18.2611C123.849 18.7828 123.588 19.1741 123.197 19.5654C122.806 19.9567 122.349 20.2176 121.827 20.4132C121.306 20.6089 120.654 20.7393 120.001 20.7393C119.154 20.7393 118.371 20.6089 117.719 20.2828C117.001 19.9567 116.414 19.5654 115.958 19.0437L116.48 18.1958L116.675 18.0002C116.74 17.935 116.806 17.935 116.936 17.935C117.067 17.935 117.197 18.0002 117.393 18.1306C117.588 18.2611 117.784 18.3915 117.98 18.5871C118.24 18.7828 118.501 18.9132 118.893 19.0437C119.219 19.1741 119.675 19.2393 120.197 19.2393C120.588 19.2393 120.98 19.1741 121.306 19.0437C121.632 18.9132 121.893 18.7828 122.154 18.5871C122.349 18.3915 122.545 18.1306 122.675 17.8045C122.806 17.5437 122.871 17.2176 122.871 16.8263C122.871 16.435 122.806 16.1089 122.61 15.848C122.414 15.5871 122.219 15.3915 121.893 15.1958C121.632 15.0002 121.24 14.8698 120.914 14.7393L119.741 14.348C119.349 14.2176 118.958 14.0871 118.567 13.8915C118.175 13.6958 117.849 13.5002 117.588 13.2393C117.327 12.9785 117.067 12.6524 116.871 12.2611C116.675 11.8698 116.61 11.4132 116.61 10.8263C116.61 10.3698 116.675 9.91323 116.871 9.45671C117.067 9.00019 117.327 8.6741 117.654 8.2828C117.98 7.95671 118.436 7.69584 118.893 7.50019C119.414 7.30454 120.001 7.1741 120.588 7.1741C121.306 7.1741 121.958 7.30454 122.61 7.50019C123.197 7.76106 123.719 8.08715 124.175 8.47845L123.654 9.52193ZM132.849 13.2393H133.501C133.762 13.2393 133.893 13.2393 134.023 13.1741C134.154 13.1089 134.284 13.0437 134.414 12.848L138.784 7.95671C138.914 7.82628 139.045 7.69584 139.175 7.63063C139.306 7.56541 139.436 7.56541 139.632 7.56541H141.132L136.175 13.1741C136.045 13.3045 135.914 13.435 135.784 13.5002C135.654 13.5654 135.523 13.6958 135.393 13.7611C135.588 13.8263 135.719 13.8915 135.849 14.0219L136.24 14.4132L141.458 20.6089H139.697C139.632 20.6089 139.567 20.5437 139.501 20.5437C139.436 20.5437 139.371 20.4785 139.371 20.4132C139.306 20.348 139.306 20.2828 139.24 20.2828L134.741 15.0654L134.545 14.8698C134.48 14.8045 134.414 14.8045 134.349 14.7393C134.284 14.6741 134.154 14.6741 134.088 14.6741H132.914V20.6741H131.088V7.63063H132.849V13.2393ZM149.741 20.5437H147.98V7.50019H149.741V20.5437ZM74.3492 26.0219V26.4785C74.3492 26.6089 74.284 26.7393 74.2188 26.8698L69.3927 33.5871H74.2188V34.5002H67.8927V34.0437C67.8927 33.9132 67.9579 33.7828 68.0231 33.7176L72.8492 26.935H68.1535V26.0219H74.3492ZM80.0231 26.0219H81.0014C81.1318 26.0219 81.197 26.0219 81.2622 26.0871C81.3275 26.1524 81.3927 26.2176 81.3927 26.2828L83.1535 32.1524C83.1535 32.2828 83.2188 32.348 83.2188 32.4785C83.2188 32.6089 83.284 32.7393 83.284 32.8698C83.284 32.7393 83.3492 32.6089 83.3492 32.4785C83.3492 32.348 83.4144 32.2176 83.4144 32.1524L85.4361 26.2828C85.4361 26.2176 85.5014 26.1524 85.5666 26.0871C85.6318 26.0219 85.697 26.0219 85.8275 26.0219H86.1535C86.284 26.0219 86.3492 26.0219 86.4144 26.0871C86.4796 26.1524 86.5448 26.2176 86.5448 26.2828L88.5014 32.1524C88.5666 32.348 88.6318 32.6089 88.697 32.8698C88.697 32.7393 88.7622 32.6089 88.7622 32.4785C88.7622 32.348 88.8275 32.2176 88.8275 32.1524L90.5883 26.2828C90.5883 26.2176 90.6535 26.1524 90.7188 26.0871C90.784 26.0219 90.8492 26.0219 90.9796 26.0219H91.8927L89.2188 34.5002H88.1753L86.0883 28.0437C86.0231 27.9132 86.0231 27.7828 85.9579 27.5871C85.9579 27.6524 85.8927 27.7176 85.8927 27.7828C85.8927 27.848 85.8275 27.9132 85.8275 27.9785L83.6753 34.435H82.6318L80.0231 26.0219ZM99.5231 34.5002H98.3492V26.0219H99.5231V34.5002ZM114.067 35.8045H114.132C114.132 35.8045 114.132 35.8698 114.197 35.8698L114.393 36.2611C114.262 36.3263 114.132 36.4567 113.936 36.4567C113.74 36.5219 113.545 36.5219 113.349 36.5219C113.023 36.5219 112.697 36.4567 112.501 36.2611C112.306 36.1306 112.175 35.8698 112.175 35.6089C112.175 35.348 112.24 35.1524 112.436 34.9567C112.567 34.7611 112.762 34.5654 113.023 34.435C112.893 34.435 112.827 34.435 112.762 34.3698C112.697 34.3045 112.632 34.2393 112.632 34.1741L111.849 32.1524H108.067L107.284 34.1741C107.284 34.2393 107.219 34.3045 107.154 34.3698C107.088 34.435 107.023 34.435 106.893 34.435H105.98L109.371 25.9567H110.545L113.936 34.435H113.74C113.675 34.5002 113.61 34.5002 113.48 34.5654L113.284 34.7611C113.219 34.8263 113.154 34.8915 113.088 35.0219C113.023 35.0872 113.023 35.2176 113.023 35.348C113.023 35.4785 113.088 35.6089 113.154 35.6741C113.219 35.7393 113.349 35.8045 113.545 35.8045H113.74C113.806 35.8045 113.871 35.8045 113.871 35.7393C113.936 35.7393 113.936 35.6741 113.936 35.6741C114.001 35.8045 114.001 35.8045 114.067 35.8045ZM108.327 31.3698H111.523L110.219 27.9132C110.154 27.7176 110.023 27.4567 109.958 27.1306C109.893 27.2611 109.893 27.4567 109.827 27.5871C109.762 27.7176 109.762 27.848 109.697 27.9132L108.327 31.3698ZM126.001 26.0219V26.4785C126.001 26.6089 125.936 26.7393 125.871 26.8698L121.045 33.5871H125.871V34.5002H119.545V34.0437C119.545 33.9132 119.61 33.7828 119.675 33.7176L124.501 26.935H119.806V26.0219H126.001ZM137.806 26.935H133.762V29.7393H137.088V30.6524H133.762V33.5219H137.806V34.435H132.588V25.9567H137.806V26.935ZM146.349 29.7393C146.48 29.7393 146.61 29.7393 146.675 29.6741C146.74 29.6089 146.871 29.5437 146.936 29.4785L149.741 26.2828C149.806 26.1524 149.936 26.0871 150.001 26.0871C150.067 26.0219 150.197 26.0219 150.327 26.0219H151.306L148.045 29.6741C147.98 29.7393 147.914 29.8698 147.784 29.935C147.719 30.0002 147.654 30.0654 147.523 30.0654C147.654 30.1306 147.719 30.1306 147.784 30.1958C147.849 30.2611 147.98 30.3263 148.045 30.4567L151.436 34.5002H150.262C150.197 34.5002 150.197 34.5002 150.132 34.435C150.067 34.435 150.067 34.3698 150.001 34.3698C150.001 34.3698 149.936 34.3045 149.936 34.2393L147.001 30.848L146.871 30.7176C146.806 30.6524 146.806 30.6524 146.74 30.6524C146.675 30.6524 146.61 30.5871 146.545 30.5871H145.762V34.5002H144.588V26.0219H145.762V29.7393H146.349ZM68.0883 48.5219V39.848H71.284C71.8709 39.848 72.3927 39.9132 72.784 40.0437C73.1753 40.1741 73.5666 40.3045 73.8275 40.5002C74.0883 40.6958 74.284 40.9567 74.4144 41.2176C74.5448 41.4785 74.6101 41.8045 74.6101 42.1958C74.6101 42.3915 74.6101 42.5871 74.5448 42.7828C74.4796 42.9785 74.4144 43.1089 74.284 43.3045C74.1535 43.435 74.0231 43.6306 73.8275 43.7611C73.6318 43.8915 73.4361 44.0219 73.1753 44.0871C73.7622 44.2176 74.1535 44.4785 74.4144 44.7393C74.6753 45.0654 74.8057 45.4567 74.8057 45.9132C74.8057 46.3045 74.7405 46.6306 74.6101 46.9567C74.4796 47.2828 74.284 47.5437 73.9579 47.8045C73.697 48.0654 73.3709 48.1958 72.9144 48.3263C72.5231 48.4567 72.0666 48.5219 71.5448 48.5219H68.0883ZM70.1101 43.5002H71.1535C71.3492 43.5002 71.5448 43.5002 71.7405 43.435C71.9362 43.435 72.0666 43.3698 72.197 43.2393C72.3274 43.1741 72.3927 43.0437 72.4579 42.9132C72.5231 42.7828 72.5883 42.5872 72.5883 42.3915C72.5883 42.1958 72.5883 42.0002 72.5231 41.8698C72.4579 41.7393 72.3927 41.6089 72.2622 41.5437L71.8709 41.348C71.6753 41.2828 71.5449 41.2828 71.284 41.2828H70.1101V43.5002ZM70.1101 47.0219H71.5448C71.8057 47.0219 72.0014 46.9567 72.197 46.8915C72.3927 46.8263 72.5231 46.7611 72.5883 46.6306C72.6535 46.5002 72.7188 46.435 72.784 46.2393C72.8492 46.1089 72.8492 45.9785 72.8492 45.848C72.8492 45.7176 72.8492 45.5219 72.784 45.3915C72.7188 45.2611 72.6535 45.1306 72.5883 45.0654L72.197 44.8698C72.0014 44.8045 71.8057 44.8045 71.5448 44.8045H70.1101V47.0219ZM84.0666 48.5219H82.5014C82.3057 48.5219 82.1753 48.4567 82.0448 48.3915C81.9144 48.3263 81.8492 48.1958 81.784 48.0654L81.2622 46.5654H78.0014L77.4796 48.0654C77.4144 48.1958 77.3492 48.2611 77.2188 48.3915C77.0883 48.4567 76.9579 48.5219 76.8275 48.5219H75.2622L78.5883 39.9132H80.6101L84.0666 48.5219ZM78.5231 45.1958H80.8709L80.0883 42.848C80.0231 42.7176 79.9579 42.5219 79.8927 42.3263C79.8275 42.1306 79.7622 41.935 79.697 41.6741C79.6318 41.935 79.5666 42.1306 79.5014 42.3263C79.4361 42.5219 79.3709 42.7176 79.3057 42.848L78.5231 45.1958ZM92.6753 44.1524C92.6753 44.8045 92.5448 45.3263 92.3492 45.848C92.1535 46.3698 91.8275 46.8263 91.4361 47.2176C91.0448 47.6089 90.5883 47.935 90.0014 48.1306C89.4796 48.3263 88.8275 48.4567 88.1753 48.4567H84.8492V39.848H88.1753C88.8275 39.848 89.4796 39.9785 90.0014 40.1741C90.5231 40.3698 91.0448 40.6958 91.4361 41.0872C91.8275 41.4785 92.1535 41.935 92.3492 42.4567C92.6101 42.9785 92.6753 43.5654 92.6753 44.1524ZM90.6535 44.1524C90.6535 43.6958 90.5883 43.3698 90.4579 42.9785C90.3275 42.6524 90.197 42.3263 90.0014 42.1306C89.8057 41.8698 89.5448 41.7393 89.2188 41.6089C88.8927 41.4785 88.5666 41.4132 88.1753 41.4132H86.8057V46.9567H88.1753C88.5666 46.9567 88.8927 46.8915 89.2188 46.7611C89.5448 46.6306 89.7405 46.435 90.0014 46.2393C90.197 45.9785 90.3927 45.7176 90.4579 45.3915C90.5883 45.0002 90.6535 44.6089 90.6535 44.1524ZM98.4144 45.0002C98.4796 45.1306 98.5448 45.3263 98.6101 45.5219C98.6753 45.3263 98.7405 45.1958 98.8057 45.0002C98.8709 44.8045 98.9361 44.6741 99.0666 44.5437L101.284 40.1741C101.349 40.1089 101.349 40.0437 101.414 39.9785C101.48 39.9132 101.48 39.9132 101.545 39.9132H103.436V48.5219H101.741V43.5654C101.741 43.3045 101.741 43.0437 101.806 42.7828L99.5231 47.2176C99.4579 47.348 99.3275 47.4785 99.2622 47.5437C99.1318 47.6089 99.0014 47.6741 98.8709 47.6741H98.4796C98.3492 47.6741 98.2188 47.6089 98.0883 47.5437C97.9579 47.4785 97.8927 47.348 97.8275 47.2176L95.5448 42.7828C95.5448 42.9132 95.5449 43.0437 95.6101 43.1741V48.5219H93.8492V39.848H95.7405C95.8057 39.848 95.8057 39.9132 95.8709 39.9132C95.9362 39.9785 95.9361 40.0437 96.0014 40.1089L98.2188 44.4785C98.284 44.6741 98.3492 44.8698 98.4144 45.0002ZM107.219 48.5219H105.197V39.848H107.219V48.5219ZM110.219 39.9132C110.284 39.9132 110.349 39.9132 110.349 39.9785C110.414 39.9785 110.414 40.0437 110.48 40.0437L110.61 40.1741L114.719 45.3263C114.719 45.1306 114.719 45.0002 114.654 44.8698V39.848H116.414V48.4567H115.436C115.306 48.4567 115.175 48.4567 115.045 48.3915C114.914 48.3263 114.849 48.2611 114.719 48.1306L110.675 42.9785V48.4567H108.914V39.848H109.958C110.088 39.848 110.154 39.848 110.219 39.9132ZM124.306 39.848V41.4132H121.893V48.4567H119.871V41.4785H117.458V39.9132H124.306V39.848ZM133.436 44.1524C133.436 44.8045 133.306 45.3263 133.11 45.9132C132.914 46.435 132.588 46.8915 132.197 47.2828C131.806 47.6741 131.349 48.0002 130.762 48.1958C130.24 48.3915 129.588 48.5219 128.936 48.5219C128.284 48.5219 127.632 48.3915 127.11 48.1958C126.588 48.0002 126.067 47.6741 125.675 47.2828C125.284 46.8915 124.958 46.435 124.762 45.9132C124.567 45.3915 124.436 44.8045 124.436 44.1524C124.436 43.5002 124.567 42.9785 124.762 42.3915C124.958 41.8698 125.284 41.4132 125.675 41.0219C126.067 40.6306 126.523 40.3045 127.11 40.1089C127.632 39.9132 128.284 39.7828 128.936 39.7828C129.588 39.7828 130.24 39.9132 130.762 40.1089C131.284 40.3045 131.806 40.6306 132.197 41.0219C132.588 41.4132 132.914 41.8698 133.11 42.3915C133.371 42.9785 133.436 43.5654 133.436 44.1524ZM131.414 44.1524C131.414 43.6958 131.349 43.3698 131.219 42.9785C131.088 42.6524 130.958 42.3263 130.762 42.1306C130.567 41.8698 130.306 41.7393 129.98 41.6089C129.654 41.4785 129.327 41.4132 128.936 41.4132C128.545 41.4132 128.219 41.4785 127.893 41.6089C127.567 41.7393 127.306 41.935 127.11 42.1306C126.914 42.3915 126.719 42.6524 126.654 42.9785C126.523 43.3045 126.458 43.6958 126.458 44.1524C126.458 44.6089 126.523 45.0002 126.654 45.3263C126.784 45.6524 126.914 45.9785 127.11 46.1741C127.306 46.435 127.567 46.5654 127.893 46.6958C128.219 46.8263 128.545 46.8915 128.936 46.8915C129.327 46.8915 129.654 46.8263 129.98 46.6958C130.306 46.5654 130.501 46.3698 130.762 46.1741C130.958 45.9132 131.154 45.6524 131.219 45.3263C131.349 45.0002 131.414 44.6089 131.414 44.1524ZM135.784 39.9132C135.849 39.9132 135.914 39.9132 135.914 39.9785C135.98 39.9785 135.98 40.0437 136.045 40.0437L136.175 40.1741L140.284 45.3263C140.284 45.1306 140.284 45.0002 140.219 44.8698V39.848H141.98V48.4567H140.936C140.806 48.4567 140.675 48.4567 140.545 48.3915C140.414 48.3263 140.349 48.2611 140.219 48.1306L136.175 42.9785V48.4567H134.414V39.848H135.458C135.654 39.848 135.784 39.848 135.784 39.9132ZM151.632 48.5219H150.067C149.871 48.5219 149.74 48.4567 149.61 48.3915C149.48 48.3263 149.414 48.1958 149.349 48.0654L148.827 46.5654H145.567L145.045 48.0654C144.98 48.1958 144.914 48.2611 144.784 48.3915C144.654 48.4567 144.523 48.5219 144.393 48.5219H142.827L146.154 39.9132H148.175L151.632 48.5219ZM146.088 45.1958H148.436L147.654 42.848C147.588 42.7176 147.523 42.5219 147.458 42.3263C147.393 42.1306 147.327 41.935 147.262 41.6741C147.197 41.935 147.132 42.1306 147.067 42.3263C147.001 42.5219 146.936 42.7176 146.871 42.848L146.088 45.1958Z" fill="#555555"/>
</svg>
