<svg width="24" height="24" viewBox="0 0 24 24" fill="none" xmlns="http://www.w3.org/2000/svg">
<path d="M2.85666 4.71811C2.19198 5.42522 2.23441 6.52831 2.93444 7.18592C3.11122 7.34855 3.30921 7.47583 3.54256 7.56775L4.20016 7.81524C4.32037 7.87888 4.36987 8.02737 4.29916 8.15465C4.27088 8.25365 4.16481 8.289 4.05874 8.28193L3.37285 8.19001C2.84252 8.12637 2.30512 8.29607 1.92328 8.66377C1.22325 9.33552 1.20203 10.4457 1.86671 11.1386C2.15663 11.4427 2.53846 11.6265 2.96273 11.6831L3.61327 11.7397L3.62034 11.7326C3.76883 11.768 3.86075 11.9023 3.83954 12.0367C3.8254 12.1498 3.74055 12.2347 3.63448 12.2417L2.96273 12.3195C2.53846 12.3761 2.14955 12.567 1.86671 12.864C1.20203 13.5569 1.22325 14.6671 1.92328 15.3389C2.30512 15.7066 2.84252 15.8763 3.37285 15.8126L4.08703 15.7207C4.23552 15.7136 4.34866 15.8268 4.32744 15.9753C4.32829 16.0226 4.31448 16.0691 4.2879 16.1084C4.26132 16.1476 4.22327 16.1777 4.17895 16.1945L4.17188 16.2015L3.54256 16.4349C3.31628 16.5339 3.11122 16.6541 2.93444 16.8167C2.23441 17.4743 2.19905 18.5845 2.86373 19.2916C3.37285 19.8007 4.12238 19.9845 4.78706 19.7158L16.426 15.2469L16.426 8.75569L4.78706 4.28678C4.11531 4.01101 3.33042 4.20193 2.85666 4.71811ZM6.3427 7.03035C6.63261 6.7263 7.07102 6.6273 7.45286 6.78287L14.4461 9.4628L8.86707 9.46987L6.71746 8.63548C6.05986 8.40214 5.85479 7.54654 6.3427 7.03035ZM5.96793 11.2942C6.15885 11.1033 6.40634 10.9972 6.68211 11.0043L13.4845 11.0043C14.036 10.9902 14.4886 11.4286 14.5027 11.9801C14.5027 12.5458 14.0714 12.9913 13.4845 12.9983L6.68211 12.9983C6.55082 13.0016 6.42021 12.9785 6.29793 12.9306C6.17565 12.8827 6.06416 12.8109 5.96999 12.7194C5.87582 12.6278 5.80087 12.5184 5.74952 12.3976C5.69817 12.2767 5.67146 12.1468 5.67095 12.0155C5.66388 11.7397 5.77701 11.4851 5.96793 11.2942ZM6.3922 15.5651C6.48412 15.4732 6.6114 15.4025 6.71746 15.3671L8.88828 14.5257H14.4603L7.45286 17.2198C6.42048 17.6299 5.59317 16.3217 6.3922 15.5651ZM18.4272 9.00318L18.4272 14.9994H19.6292C20.697 14.9924 21.6798 14.4196 22.2172 13.5004C22.4783 13.0439 22.6156 12.5272 22.6156 12.0013C22.6156 11.4755 22.4783 10.9587 22.2172 10.5022C21.6798 9.58301 20.697 9.01025 19.6292 9.00318H18.4272Z" fill="white"/>
</svg>
