<svg width="217" height="289" viewBox="0 0 217 289" fill="none" xmlns="http://www.w3.org/2000/svg">
<path fill-rule="evenodd" clip-rule="evenodd" d="M216.835 127.865C216.835 187.854 168.133 236.78 108.417 236.78C48.7025 236.78 0 187.854 0 127.865V0H216.835V127.865Z" fill="#555555"/>
<path fill-rule="evenodd" clip-rule="evenodd" d="M214.708 127.679C214.708 186.492 166.96 234.458 108.416 234.458C49.8723 234.458 2.125 186.492 2.125 127.679V2.32129H214.708V127.679Z" fill="#555555"/>
<path fill-rule="evenodd" clip-rule="evenodd" d="M44.8652 24.3943C58.6178 25.4853 76.3011 27.3125 91.7685 26.5799C94.3006 26.4599 94.8011 24.8205 96.8895 24.4627V12.9688H117.507V24.5113C119.366 24.9787 120.255 26.6909 122.478 26.787C137.904 27.455 154.645 25.2152 168.671 24.3943V55.3796C160.677 53.8102 143.777 51.116 122.813 52.2691C120.303 52.4072 119.596 54.7242 117.507 55.2663V109.209C118.413 145.477 119.073 181.731 121.108 218.241C112.115 219.565 103.182 219.587 94.3122 218.241C96.3688 181.897 96.481 145.552 96.8895 109.209V55.2312C95.1323 54.646 94.0633 52.5184 92.0485 52.3746C73.7627 51.0691 56.246 53.4428 44.8652 55.3796V24.3943Z" fill="white"/>
<path fill-rule="evenodd" clip-rule="evenodd" d="M46.0781 25.5924C59.5611 26.5979 76.8975 28.2821 92.0617 27.6067C94.8497 27.4825 95.1259 25.5924 97.9166 25.5924H116.347C118.876 25.5924 119.643 27.695 122.169 27.7977C137.293 28.4134 153.705 26.349 167.456 25.5924V54.1517C159.619 52.7051 143.05 50.2219 122.498 51.2847C119.709 51.4288 119.192 54.1517 116.4 54.1517H97.9693C95.6721 54.1517 94.6281 51.5358 92.3362 51.3819C74.4089 50.1786 57.2356 52.3665 46.0781 54.1517V25.5924ZM97.9429 14.0771H116.359V24.3949H97.9429V14.0771ZM116.359 55.3803V109.198C117.168 145.045 117.758 180.878 119.575 216.964C111.542 218.272 103.563 218.294 95.6407 216.964C97.4778 181.042 97.5781 145.12 97.9429 109.198V55.3803H116.359Z" fill="white"/>
<path fill-rule="evenodd" clip-rule="evenodd" d="M53.3585 71.9512H67.7629V79.8032L81.6277 79.5946V99.8236L67.7629 99.6185V118.238C68.2775 145.172 68.8325 172.105 70.6495 199.04C63.9898 199.669 57.3302 199.799 50.6711 199.04C52.458 172.416 52.8829 145.318 53.3585 118.238V99.4056L50.348 99.361C37.9053 98.9246 26.365 96.2833 15.523 91.9358C13.2845 91.0383 13.2942 90.348 15.5379 89.3687C26.6493 84.5197 38.3129 81.0951 50.9012 80.057L53.3585 80.0199V71.9512Z" fill="white"/>
<path fill-rule="evenodd" clip-rule="evenodd" d="M80.3879 80.9139L51.6746 81.316C38.8594 82.2994 27.0699 85.7457 15.8555 90.5733C26.7836 94.9908 38.4687 97.6879 51.1578 98.1022L80.3879 98.5044V80.9139ZM54.4203 73.1253H66.7315V79.8187L54.4203 80.0041V73.1253ZM66.7315 99.6034V118.525C67.1714 144.942 67.6459 171.359 69.1987 197.778C63.5066 198.394 57.8148 198.522 52.1233 197.778C53.6505 171.664 54.0137 145.086 54.4203 118.525V99.4213L66.7315 99.6034Z" fill="white"/>
<path fill-rule="evenodd" clip-rule="evenodd" d="M161.418 71.9512H147.013V79.8032L133.148 79.5946V99.8236L147.013 99.6185V118.238C146.499 145.172 145.944 172.105 144.127 199.04C150.786 199.669 157.446 199.799 164.105 199.04C162.318 172.416 161.893 145.318 161.418 118.238V99.4056L164.428 99.361C176.871 98.9246 188.411 96.2833 199.253 91.9358C201.492 91.0383 201.482 90.348 199.238 89.3687C188.127 84.5197 176.463 81.0951 163.875 80.057L161.418 80.0199V71.9512Z" fill="white"/>
<path fill-rule="evenodd" clip-rule="evenodd" d="M134.389 80.9139L163.102 81.316C175.917 82.2994 187.707 85.7457 198.921 90.5733C187.993 94.9908 176.308 97.6879 163.619 98.1022L134.389 98.5044V80.9139ZM160.356 73.1253H148.045V79.8187L160.356 80.0041V73.1253ZM148.045 99.6034V118.525C147.605 144.942 147.131 171.359 145.578 197.778C151.27 198.394 156.962 198.522 162.653 197.778C161.126 171.664 160.763 145.086 160.356 118.525V99.4213L148.045 99.6034Z" fill="white"/>
<path d="M24.8291 278.309L16.8456 249.112H20.4382L26.5399 272.891H26.825L33.0407 249.112H37.0325L43.2482 272.891H43.5333L49.635 249.112H53.2276L45.2441 278.309H41.5945L35.1507 255.042H34.9226L28.4787 278.309H24.8291ZM57.1766 278.309V256.411H60.5411V278.309H57.1766ZM58.8874 252.761C58.2316 252.761 57.6661 252.538 57.1909 252.091C56.7252 251.645 56.4923 251.108 56.4923 250.48C56.4923 249.853 56.7252 249.316 57.1909 248.869C57.6661 248.423 58.2316 248.199 58.8874 248.199C59.5431 248.199 60.1039 248.423 60.5696 248.869C61.0448 249.316 61.2824 249.853 61.2824 250.48C61.2824 251.108 61.0448 251.645 60.5696 252.091C60.1039 252.538 59.5431 252.761 58.8874 252.761ZM75.8844 278.765C73.7745 278.765 71.9544 278.299 70.4242 277.368C68.9036 276.427 67.7298 275.115 66.9029 273.433C66.0856 271.741 65.6769 269.774 65.6769 267.531C65.6769 265.288 66.0856 263.311 66.9029 261.6C67.7298 259.88 68.8798 258.54 70.353 257.58C71.8356 256.611 73.5654 256.126 75.5422 256.126C76.6827 256.126 77.809 256.316 78.921 256.696C80.033 257.076 81.0452 257.694 81.9576 258.549C82.87 259.395 83.597 260.517 84.1388 261.914C84.6805 263.311 84.9514 265.031 84.9514 267.075V268.5H68.072V265.592H81.5299C81.5299 264.356 81.2828 263.254 80.7885 262.285C80.3038 261.315 79.61 260.55 78.7071 259.989C77.8137 259.429 76.7588 259.148 75.5422 259.148C74.2021 259.148 73.0426 259.481 72.0637 260.146C71.0943 260.802 70.3482 261.657 69.8255 262.712C69.3027 263.767 69.0414 264.898 69.0414 266.105V268.044C69.0414 269.698 69.3265 271.1 69.8968 272.25C70.4765 273.39 71.2796 274.26 72.3061 274.859C73.3325 275.448 74.5253 275.742 75.8844 275.742C76.7683 275.742 77.5666 275.619 78.2794 275.372C79.0018 275.115 79.6243 274.735 80.147 274.231C80.6697 273.718 81.0737 273.081 81.3588 272.321L84.6092 273.233C84.2671 274.336 83.6921 275.305 82.8842 276.142C82.0764 276.969 81.0784 277.615 79.8904 278.08C78.7024 278.537 77.367 278.765 75.8844 278.765ZM93.4339 249.112V278.309H90.0694V249.112H93.4339ZM99.5961 278.309V256.411H102.961V278.309H99.5961ZM101.307 252.761C100.651 252.761 100.086 252.538 99.6104 252.091C99.1447 251.645 98.9118 251.108 98.9118 250.48C98.9118 249.853 99.1447 249.316 99.6104 248.869C100.086 248.423 100.651 248.199 101.307 248.199C101.963 248.199 102.523 248.423 102.989 248.869C103.464 249.316 103.702 249.853 103.702 250.48C103.702 251.108 103.464 251.645 102.989 252.091C102.523 252.538 101.963 252.761 101.307 252.761ZM118.019 278.765C115.966 278.765 114.198 278.28 112.715 277.311C111.233 276.341 110.092 275.006 109.294 273.305C108.496 271.603 108.096 269.66 108.096 267.474C108.096 265.25 108.505 263.287 109.322 261.586C110.149 259.875 111.299 258.54 112.772 257.58C114.255 256.611 115.985 256.126 117.962 256.126C119.501 256.126 120.889 256.411 122.125 256.981C123.36 257.551 124.372 258.35 125.161 259.376C125.95 260.403 126.439 261.6 126.63 262.969H123.265C123.008 261.971 122.438 261.087 121.554 260.317C120.68 259.538 119.501 259.148 118.019 259.148C116.707 259.148 115.557 259.49 114.569 260.175C113.59 260.849 112.825 261.805 112.274 263.04C111.732 264.266 111.461 265.706 111.461 267.36C111.461 269.052 111.727 270.525 112.259 271.779C112.801 273.034 113.561 274.008 114.54 274.702C115.529 275.396 116.688 275.742 118.019 275.742C118.893 275.742 119.687 275.59 120.4 275.286C121.112 274.982 121.716 274.545 122.21 273.975C122.704 273.404 123.056 272.72 123.265 271.922H126.63C126.439 273.214 125.969 274.379 125.218 275.415C124.477 276.441 123.493 277.258 122.267 277.867C121.051 278.465 119.635 278.765 118.019 278.765ZM130.921 278.309V275.742L143.352 259.775V259.547H131.32V256.411H147.686V259.091L135.597 274.944V275.172H148.085V278.309H130.921ZM156.404 270.325L156.347 266.162H157.031L166.611 256.411H170.774L160.567 266.733H160.282L156.404 270.325ZM153.267 278.309V249.112H156.632V278.309H153.267ZM167.182 278.309L158.628 267.474L161.023 265.136L171.458 278.309H167.182ZM181.548 278.822C180.161 278.822 178.901 278.56 177.77 278.038C176.639 277.505 175.741 276.74 175.076 275.742C174.411 274.735 174.078 273.518 174.078 272.093C174.078 270.838 174.325 269.821 174.819 269.042C175.314 268.253 175.974 267.635 176.801 267.189C177.628 266.742 178.54 266.409 179.538 266.191C180.546 265.963 181.558 265.782 182.575 265.649C183.905 265.478 184.984 265.35 185.811 265.264C186.647 265.169 187.256 265.012 187.636 264.794C188.025 264.575 188.22 264.195 188.22 263.653V263.539C188.22 262.132 187.835 261.039 187.065 260.26C186.305 259.481 185.15 259.091 183.601 259.091C181.995 259.091 180.736 259.443 179.823 260.146C178.911 260.849 178.269 261.6 177.899 262.399L174.705 261.258C175.276 259.928 176.036 258.892 176.986 258.15C177.946 257.399 178.992 256.877 180.123 256.582C181.263 256.278 182.385 256.126 183.487 256.126C184.19 256.126 184.998 256.211 185.911 256.382C186.833 256.544 187.721 256.881 188.577 257.395C189.442 257.908 190.159 258.682 190.729 259.718C191.3 260.754 191.585 262.142 191.585 263.881V278.309H188.22V275.343H188.049C187.821 275.818 187.441 276.327 186.909 276.869C186.376 277.41 185.668 277.871 184.784 278.252C183.901 278.632 182.822 278.822 181.548 278.822ZM182.062 275.799C183.392 275.799 184.514 275.538 185.426 275.015C186.348 274.493 187.042 273.818 187.507 272.991C187.983 272.164 188.22 271.295 188.22 270.382V267.303C188.078 267.474 187.764 267.631 187.279 267.773C186.804 267.906 186.253 268.025 185.626 268.13C185.008 268.225 184.404 268.31 183.815 268.386C183.235 268.453 182.765 268.51 182.404 268.557C181.529 268.671 180.712 268.857 179.952 269.113C179.201 269.36 178.593 269.736 178.127 270.24C177.671 270.734 177.442 271.409 177.442 272.264C177.442 273.433 177.875 274.317 178.74 274.916C179.614 275.505 180.721 275.799 182.062 275.799Z" fill="#555555"/>
</svg>
