<svg width="225" height="60" viewBox="0 0 225 60" fill="none" xmlns="http://www.w3.org/2000/svg">
<path d="M0 29.8435H142.405V16.5434L157.101 44.3243V29.8435H225V60H0V29.8435Z" fill="#555555"/>
<path d="M157.059 30H225V0H0V30H142.405V16.6998L157.101 44.4808V30" fill="#555555"/>
<path d="M51.0807 48.606C53.1666 48.6369 55.2144 48.0453 56.9618 46.9069C58.7092 45.7685 60.0767 44.1351 60.8894 42.2158C61.702 40.2965 61.9227 38.1786 61.5233 36.1333C61.1239 34.088 60.1225 32.2082 58.6474 30.7347C57.1722 29.2612 55.2904 28.2609 53.2428 27.862C51.1952 27.463 49.075 27.6835 47.1535 28.4952C45.2321 29.307 43.5969 30.6729 42.4573 32.4184C41.3176 34.1639 40.7254 36.2094 40.7563 38.2931C40.7967 41.0156 41.8975 43.6153 43.825 45.5407C45.7525 47.4661 48.3551 48.5656 51.0807 48.606Z" fill="white"/>
<path d="M78.9921 12.1337H48.8734C53.4565 14.7818 57.2614 18.5879 59.906 23.1696C62.5505 27.7513 63.9418 32.9474 63.9399 38.2361L79.0063 12.1337" fill="white"/>
<path d="M49.0728 12.1337H18.9541C23.5558 14.7606 27.3759 18.5619 30.0233 23.1485C32.6707 27.735 34.0502 32.9419 34.0206 38.2361L49.087 12.1337" fill="white"/>
<path d="M20.9478 48.606C23.0206 48.6256 25.0527 48.0307 26.7871 46.8967C28.5215 45.7627 29.8803 44.1405 30.6917 42.2351C31.5031 40.3297 31.7307 38.2267 31.3456 36.1921C30.9605 34.1576 29.9801 32.2827 28.5283 30.8047C27.0766 29.3267 25.2187 28.3119 23.1895 27.8887C21.1604 27.4654 19.0512 27.6527 17.1286 28.4268C15.206 29.2009 13.5564 30.5271 12.3883 32.2377C11.2203 33.9483 10.5863 35.9665 10.5665 38.037V38.1365C10.5437 40.8881 11.6152 43.5363 13.5457 45.4993C15.4762 47.4623 18.1077 48.5797 20.8623 48.606H20.9336" fill="white"/>
<path d="M134.843 30C134.843 32.404 134.644 34.9787 134.544 35.7752C133.946 43.0441 132.052 48.5775 123.066 48.5775C114.394 48.5775 112.087 42.7027 111.674 35.7752C111.674 35.3769 111.375 33.0868 111.375 29.9004C111.364 27.9381 111.464 25.9767 111.674 24.0256C112.172 17.5533 114.081 11.2233 123.066 11.2233C132.636 11.2233 134.046 17.2973 134.544 24.0256C134.746 26.0106 134.846 28.0047 134.843 30ZM128.165 29.9004C128.165 26.6145 127.965 25.0213 127.965 24.0256C127.965 20.6401 127.068 17.4538 123.28 17.4538C119.492 17.4538 118.595 20.6401 118.595 24.0256C118.595 24.9217 118.396 26.6287 118.396 29.9004C118.396 33.1721 118.595 35.0782 118.595 35.7752C118.695 40.6543 120.29 42.3471 123.18 42.3471C126.071 42.3471 127.865 40.6543 127.965 35.6757C127.965 34.9786 128.165 33.3855 128.165 29.9004Z" fill="white"/>
<path d="M105.38 12.1337L99.5981 24.6942L94.3149 12.1337H87.1946L96.2658 33.1579V47.8094H102.745V33.0584L112.315 12.1337H105.38Z" fill="white"/>
<path d="M164.905 12.1337V47.8094H183.703V41.3798H171.328V33.101H182.606V26.6287H171.328V18.6202H183.703V12.148H164.905" fill="white"/>
<path d="M201.261 29.872L209.805 12.1337H202.685L197.701 22.404L192.717 12.1337H185.597L194.141 29.872L185.597 47.8094H192.717L197.801 37.3542L202.884 47.8094H210.005L201.332 29.872" fill="white"/>
<path d="M153.797 12.1337V31.5647L144.427 12.1337H138.731V47.8094H145.253V28.4779L154.538 47.8094H160.32V12.1337H153.797Z" fill="white"/>
</svg>
